<svg aria-hidden="true" style="position: absolute; width: 0; height: 0; overflow: hidden;" version="1.1" xmlns="http://www.w3.org/2000/svg" xmlns:xlink="http://www.w3.org/1999/xlink">
<defs>
<symbol id="icon-snowflake-o" viewBox="0 0 26 28">
<path d="M24.469 17.453l-2.609 0.516 2.906 1.672c0.469 0.266 0.641 0.891 0.359 1.359s-0.891 0.641-1.359 0.359l-2.906-1.656 0.859 2.5c0.438 1.25-1.469 1.891-1.891 0.656l-1.594-4.688-4.234-2.438v4.891l3.25 3.719c0.875 0.984-0.641 2.312-1.5 1.313l-1.75-2v3.344c0 0.547-0.453 1-1 1s-1-0.453-1-1v-3.344l-1.75 2c-0.859 1-2.375-0.328-1.5-1.313l3.25-3.719v-4.891l-4.234 2.438-1.594 4.688c-0.422 1.234-2.328 0.594-1.891-0.656l0.859-2.5-2.906 1.656c-0.469 0.281-1.078 0.109-1.359-0.359s-0.109-1.094 0.359-1.359l2.906-1.672-2.609-0.516c-1.297-0.266-0.906-2.219 0.391-1.969l4.844 0.969 4.234-2.453-4.234-2.453-4.844 0.969c-0.063 0.016-0.141 0.016-0.203 0.016-1.188 0-1.359-1.75-0.187-1.984l2.609-0.516-2.906-1.672c-0.469-0.266-0.641-0.891-0.359-1.359 0.281-0.484 0.891-0.641 1.359-0.359l2.906 1.656-0.859-2.5c-0.438-1.25 1.469-1.891 1.891-0.656l1.594 4.688 4.234 2.438v-4.891l-3.25-3.719c-0.875-0.984 0.641-2.312 1.5-1.313l1.75 2v-3.344c0-0.547 0.453-1 1-1s1 0.453 1 1v3.344l1.75-2c0.859-1 2.375 0.328 1.5 1.313l-3.25 3.719v4.891l4.234-2.438 1.594-4.688c0.422-1.234 2.328-0.594 1.891 0.656l-0.859 2.5 2.906-1.656c0.469-0.281 1.078-0.109 1.359 0.359s0.109 1.094-0.359 1.359l-2.906 1.672 2.609 0.516c1.172 0.234 1 1.984-0.187 1.984-0.063 0-0.141 0-0.203-0.016l-4.844-0.969-4.234 2.453 4.234 2.453 4.844-0.969c1.297-0.25 1.687 1.703 0.391 1.969z"></path>
</symbol>
<symbol id="icon-Fahrenheit" viewBox="0 0 32 32">
<path d="M13.033 11.079c-0.225-0.212-0.487-0.38-0.784-0.504-0.301-0.121-0.621-0.184-0.961-0.184-0.341 0-0.662 0.063-0.961 0.184-0.297 0.124-0.559 0.292-0.784 0.504-0.224 0.213-0.4 0.463-0.529 0.753-0.128 0.288-0.191 0.592-0.191 0.912 0 0.32 0.064 0.625 0.191 0.913 0.129 0.288 0.305 0.539 0.529 0.751 0.225 0.213 0.487 0.383 0.784 0.504 0.299 0.124 0.62 0.185 0.961 0.185 0.34 0 0.66-0.061 0.961-0.185 0.297-0.121 0.559-0.29 0.784-0.504 0.224-0.212 0.4-0.464 0.526-0.751 0.128-0.288 0.194-0.592 0.194-0.913 0-0.319-0.066-0.624-0.194-0.912-0.126-0.289-0.302-0.539-0.526-0.753zM12.074 13.496c-0.215 0.214-0.477 0.32-0.785 0.32s-0.57-0.107-0.785-0.32c-0.212-0.213-0.32-0.463-0.32-0.753 0-0.297 0.108-0.552 0.32-0.759 0.215-0.208 0.477-0.311 0.785-0.311s0.57 0.103 0.785 0.311c0.211 0.207 0.319 0.462 0.319 0.759 0 0.289-0.108 0.539-0.319 0.753zM23.176 12.552v-1.969h-7.599v11.025h2.191v-4.496h4.624v-1.967h-4.624v-2.592h5.407z"></path>
</symbol>
<symbol id="icon-Celsius" viewBox="0 0 32 32">
<path d="M13.073 11.023c-0.225-0.212-0.487-0.38-0.784-0.504-0.301-0.121-0.621-0.184-0.961-0.184-0.341 0-0.662 0.063-0.961 0.184-0.297 0.124-0.559 0.292-0.784 0.504-0.224 0.214-0.4 0.464-0.529 0.753-0.128 0.288-0.191 0.592-0.191 0.911 0 0.32 0.064 0.625 0.191 0.913 0.129 0.288 0.305 0.539 0.529 0.751 0.225 0.214 0.487 0.383 0.784 0.504 0.299 0.124 0.62 0.185 0.961 0.185 0.34 0 0.66-0.061 0.961-0.185 0.297-0.121 0.559-0.29 0.784-0.504 0.224-0.212 0.4-0.464 0.526-0.751 0.128-0.288 0.194-0.592 0.194-0.913 0-0.319-0.066-0.624-0.194-0.911-0.126-0.289-0.302-0.539-0.526-0.753zM12.113 13.44c-0.215 0.214-0.477 0.32-0.785 0.32s-0.57-0.107-0.785-0.32c-0.212-0.214-0.32-0.464-0.32-0.753 0-0.297 0.108-0.552 0.32-0.759 0.215-0.208 0.477-0.311 0.785-0.311s0.57 0.103 0.785 0.311c0.211 0.207 0.319 0.462 0.319 0.759 0 0.289-0.108 0.539-0.319 0.753zM20.953 19.487c-0.379 0.108-0.755 0.161-1.129 0.161-0.246 0-0.488-0.038-0.728-0.112-0.241-0.076-0.46-0.193-0.656-0.353-0.198-0.16-0.358-0.365-0.479-0.616-0.122-0.25-0.185-0.557-0.185-0.919v-3.216c0-0.362 0.062-0.672 0.185-0.928 0.121-0.255 0.279-0.464 0.471-0.624s0.409-0.275 0.656-0.344c0.245-0.069 0.49-0.104 0.736-0.104 0.374 0 0.758 0.055 1.152 0.168 0.395 0.112 0.762 0.312 1.104 0.6l1.056-1.697c-0.428-0.372-0.936-0.645-1.53-0.816-0.591-0.169-1.206-0.255-1.846-0.255-0.522 0-1.036 0.075-1.536 0.224-0.501 0.15-0.947 0.374-1.336 0.672-0.388 0.3-0.704 0.669-0.943 1.112-0.242 0.443-0.362 0.958-0.362 1.544v4.128c0 0.598 0.124 1.117 0.37 1.56 0.245 0.443 0.565 0.811 0.958 1.104 0.396 0.294 0.842 0.514 1.344 0.664 0.503 0.148 1.014 0.224 1.538 0.224 0.65 0 1.267-0.096 1.855-0.288 0.586-0.193 1.082-0.46 1.488-0.799l-1.040-1.697c-0.383 0.299-0.766 0.501-1.143 0.607z"></path>
</symbol>
<symbol id="icon-droplet" viewBox="0 0 32 32">
<path d="M16.038 0c0 0-10.038 11.921-10.038 22.023s9.962 9.977 9.962 9.977 10.038-0.125 10.038-10.039-9.962-21.961-9.962-21.961zM16 28c-3.313 0-6-2.687-6-6 0-2.121 1.114-3.963 2.777-5.026-0.477 0.637-0.777 1.53-0.777 2.526 0 0.207 0.019 0.407 0.043 0.604-0.009 0.134-0.043 0.26-0.043 0.396 0 0.257 0.042 0.503 0.076 0.75-0.047 0.243-0.076 0.493-0.076 0.75 0 2.209 1.791 4 4 4 0.257 0 0.507-0.029 0.75-0.075 0.248 0.034 0.493 0.075 0.75 0.075 0.136 0 0.262-0.033 0.395-0.044 0.197 0.025 0.398 0.044 0.605 0.044 0.996 0 1.889-0.3 2.526-0.776-1.063 1.662-2.905 2.776-5.026 2.776z"></path>
</symbol>
<symbol id="icon-eye" viewBox="0 0 32 32">
<path d="M16 6c-6.979 0-13.028 4.064-16 10 2.972 5.936 9.021 10 16 10s13.027-4.064 16-10c-2.972-5.936-9.021-10-16-10zM23.889 11.303c1.88 1.199 3.473 2.805 4.67 4.697-1.197 1.891-2.79 3.498-4.67 4.697-2.362 1.507-5.090 2.303-7.889 2.303s-5.527-0.796-7.889-2.303c-1.88-1.199-3.473-2.805-4.67-4.697 1.197-1.891 2.79-3.498 4.67-4.697 0.122-0.078 0.246-0.154 0.371-0.228-0.311 0.854-0.482 1.776-0.482 2.737 0 4.418 3.582 8 8 8s8-3.582 8-8c0-0.962-0.17-1.883-0.482-2.737 0.124 0.074 0.248 0.15 0.371 0.228v0zM16 13c0 1.657-1.343 3-3 3s-3-1.343-3-3 1.343-3 3-3 3 1.343 3 3z"></path>
</symbol>
<symbol id="icon-arrow-up-left" viewBox="0 0 32 32">
<path d="M0 23l8-8 17 17 7-7-17-17 8-8h-23v23z"></path>
</symbol>
<symbol id="icon-arrow-up" viewBox="0 0 32 32">
<path d="M16 1l-15 15h9v16h12v-16h9z"></path>
</symbol>
<symbol id="icon-arrow-up-right" viewBox="0 0 32 32">
<path d="M9 0l8 8-17 17 7 7 17-17 8 8v-23h-23z"></path>
</symbol>
<symbol id="icon-arrow-right" viewBox="0 0 32 32">
<path d="M31 16l-15-15v9h-16v12h16v9z"></path>
</symbol>
<symbol id="icon-arrow-down-right" viewBox="0 0 32 32">
<path d="M32 9l-8 8-17-17-7 7 17 17-8 8h23v-23z"></path>
</symbol>
<symbol id="icon-arrow-down" viewBox="0 0 32 32">
<path d="M16 31l15-15h-9v-16h-12v16h-9z"></path>
</symbol>
<symbol id="icon-arrow-down-left" viewBox="0 0 32 32">
<path d="M23 32l-8-8 17-17-7-7-17 17-8-8v23h23z"></path>
</symbol>
<symbol id="icon-arrow-left" viewBox="0 0 32 32">
<path d="M1 16l15 15v-9h16v-12h-16v-9z"></path>
</symbol>
<symbol id="icon-thermometer-full" viewBox="0 0 32 32">
<path d="M16.987 23.166c1.172 0.408 2.013 1.523 2.013 2.834 0 1.657-1.343 3-3 3s-3-1.343-3-3c0-1.311 0.841-2.426 2.013-2.834-0.009-0.054-0.013-0.109-0.013-0.165v-19.003c0-0.56 0.448-0.999 1-0.999 0.556 0 1 0.447 1 0.999v19.003c0 0.056-0.005 0.111-0.013 0.165v0zM18 22.535v-18.532c0-1.107-0.888-2.004-2-2.004-1.105 0-2 0.89-2 2.004v18.532c-1.196 0.692-2 1.984-2 3.465 0 2.209 1.791 4 4 4s4-1.791 4-4c0-1.481-0.804-2.773-2-3.465zM19.969 21.5c1.246 1.099 2.031 2.708 2.031 4.5 0 3.314-2.686 6-6 6s-6-2.686-6-6c0-1.792 0.786-3.401 2.031-4.5-0.021-0.165-0.031-0.332-0.031-0.503v-16.994c0-2.205 1.791-4.003 4-4.003 2.205 0 4 1.792 4 4.003v16.994c0 0.17-0.011 0.338-0.031 0.503v0 0z"></path>
</symbol>
<symbol id="icon-thermometer-low" viewBox="0 0 32 32">
<path d="M18 22.535v-18.532c0-1.107-0.888-2.004-2-2.004-1.105 0-2 0.89-2 2.004v18.532c-1.196 0.692-2 1.984-2 3.465 0 2.209 1.791 4 4 4s4-1.791 4-4c0-1.481-0.804-2.773-2-3.465zM19.969 21.5c1.246 1.099 2.031 2.708 2.031 4.5 0 3.314-2.686 6-6 6s-6-2.686-6-6c0-1.792 0.786-3.401 2.031-4.5-0.021-0.165-0.031-0.332-0.031-0.503v-16.994c0-2.205 1.791-4.003 4-4.003 2.205 0 4 1.792 4 4.003v16.994c0 0.17-0.011 0.338-0.031 0.503v0 0zM16 29c1.657 0 3-1.343 3-3s-1.343-3-3-3c-1.657 0-3 1.343-3 3s1.343 3 3 3v0z"></path>
</symbol>
<symbol id="icon-wind" viewBox="0 0 32 32">
<path d="M30 14c0-2.209-1.795-4-4-4-2.209 0-4 1.789-4 4h2c0-1.105 0.888-2 2-2 1.105 0 2 0.888 2 2 0 1.105-0.89 2-2.004 2h-22.996v2h23.002c2.208 0 3.998-1.795 3.998-4v0zM21 10c0-2.209-1.795-4-4-4-2.209 0-4 1.789-4 3.997v0.003h2c0-1.105 0.888-2 2-2 1.105 0 2 0.888 2 2 0 1.105-0.897 2-2.006 2h-11.994v2h12.004c2.207 0 3.996-1.795 3.996-4v0zM26 23c0 1.657-1.347 3-3 3v0c-1.657 0-3-1.342-3-2.991v-0.009h2c0 0.552 0.444 1 1 1v0c0.552 0 1-0.444 1-1v0c0-0.552-0.449-1-1.007-1h-13.993v-2h14c1.657 0 3 1.347 3 3v0 0z"></path>
</symbol>
<symbol id="icon-thermometer-half" viewBox="0 0 32 32">
<path d="M16.986 23.166c1.173 0.408 2.014 1.523 2.014 2.834 0 1.657-1.343 3-3 3s-3-1.343-3-3c0-1.311 0.841-2.426 2.014-2.834-0.009-0.055-0.014-0.111-0.014-0.168v-9.995c0-0.547 0.448-1.002 1-1.002 0.556 0 1 0.449 1 1.002v9.995c0 0.057-0.005 0.113-0.014 0.168v0zM18 22.535v-18.532c0-1.107-0.888-2.004-2-2.004-1.105 0-2 0.89-2 2.004v18.532c-1.196 0.692-2 1.984-2 3.465 0 2.209 1.791 4 4 4s4-1.791 4-4c0-1.481-0.804-2.773-2-3.465zM19.969 21.5c1.246 1.099 2.031 2.708 2.031 4.5 0 3.314-2.686 6-6 6s-6-2.686-6-6c0-1.792 0.786-3.401 2.031-4.5-0.021-0.165-0.031-0.332-0.031-0.503v-16.994c0-2.205 1.791-4.003 4-4.003 2.205 0 4 1.792 4 4.003v16.994c0 0.17-0.011 0.338-0.031 0.503v0 0z"></path>
</symbol>
<symbol id="icon-cloud-sun-lightning" viewBox="0 0 32 32">
<path d="M17.067 21l1.533-4h-3.9l-2.3 6h2.579l-1.479 4.1 6.1-6.1h-2.533zM19 23h5.997c2.211 0 4.003-1.795 4.003-4 0-1.877-1.299-3.453-3.042-3.884v0c0.028-0.202 0.042-0.407 0.042-0.616 0-2.485-2.015-4.5-4.5-4.5-1.226 0-2.337 0.49-3.148 1.285-0.991-1.949-3.015-3.285-5.352-3.285-3.314 0-6 2.686-6 6 0 0.377 0.035 0.745 0.101 1.102v0c-1.776 0.41-3.101 2.002-3.101 3.898 0 2.209 1.798 4 4.003 4h3.372l2.625-7h6l-1.5 4h3.5l-3 3zM13.545 24h-5.546c-2.767 0-4.999-2.239-4.999-5 0-2.051 1.24-3.818 3.012-4.588-0.008-0.136-0.012-0.273-0.012-0.412 0-3.866 3.134-7 7-7 0.522 0 1.030 0.057 1.519 0.165v0c0.878-1.87 2.778-3.165 4.981-3.165 3.038 0 5.5 2.462 5.5 5.5 0 0.244-0.016 0.484-0.047 0.719v0c1.228 0.992 2.020 2.501 2.046 4.195 1.768 0.771 3.001 2.534 3.001 4.585 0 2.756-2.238 5-4.999 5h-7.001l-7 7 2.545-7zM23.999 9.599c0.001-0.033 0.001-0.066 0.001-0.099 0-2.485-2.015-4.5-4.5-4.5-1.749 0-3.265 0.998-4.010 2.456 1.253 0.477 2.334 1.304 3.124 2.362 0.839-0.518 1.828-0.817 2.886-0.817 0.9 0 1.749 0.216 2.499 0.599v0 0zM19.5 0c-0.276 0-0.5 0.216-0.5 0.495v2.009c0 0.274 0.232 0.495 0.5 0.495 0.276 0 0.5-0.216 0.5-0.495v-2.009c0-0.274-0.232-0.495-0.5-0.495v0zM26.233 2.789c-0.195-0.195-0.506-0.201-0.704-0.003l-1.421 1.421c-0.193 0.193-0.186 0.514 0.003 0.704 0.195 0.195 0.506 0.201 0.704 0.003l1.421-1.421c0.193-0.193 0.186-0.514-0.003-0.704v0zM29.022 9.522c0-0.276-0.216-0.5-0.495-0.5h-2.009c-0.274 0-0.495 0.232-0.495 0.5 0 0.276 0.216 0.5 0.495 0.5h2.009c0.274 0 0.495-0.232 0.495-0.5v0zM12.767 2.789c-0.195 0.195-0.201 0.506-0.003 0.704l1.421 1.421c0.193 0.193 0.514 0.186 0.704-0.003 0.195-0.195 0.201-0.506 0.003-0.704l-1.421-1.421c-0.193-0.193-0.514-0.186-0.704 0.003v0z"></path>
</symbol>
<symbol id="icon-cloud-sun-snow" viewBox="0 0 32 32">
<path d="M7.101 15.102v0c-0.066-0.357-0.101-0.726-0.101-1.102 0-3.314 2.686-6 6-6 2.336 0 4.361 1.335 5.352 3.285 0.812-0.795 1.923-1.285 3.148-1.285 2.485 0 4.5 2.015 4.5 4.5 0 0.209-0.014 0.415-0.042 0.616v0c1.743 0.431 3.042 2.006 3.042 3.884 0 2.205-1.792 4-4.003 4h-16.994c-2.205 0-4.003-1.791-4.003-4 0-1.895 1.325-3.488 3.101-3.898zM24.953 10.219c0.031-0.235 0.047-0.475 0.047-0.719 0-3.038-2.462-5.5-5.5-5.5-2.203 0-4.103 1.295-4.981 3.165v0c-0.489-0.108-0.997-0.165-1.519-0.165-3.866 0-7 3.134-7 7 0 0.138 0.004 0.275 0.012 0.412-1.772 0.77-3.012 2.538-3.012 4.588 0 2.761 2.232 5 4.999 5h17.001c2.761 0 4.999-2.244 4.999-5 0-2.052-1.232-3.815-3.001-4.585-0.026-1.695-0.818-3.204-2.046-4.195v0 0zM23.999 9.599v0 0c-0.75-0.383-1.599-0.599-2.499-0.599-1.059 0-2.047 0.299-2.886 0.817-0.789-1.057-1.87-1.884-3.124-2.362 0.745-1.458 2.261-2.456 4.010-2.456 2.485 0 4.5 2.015 4.5 4.5 0 0.033-0 0.066-0.001 0.099zM10 26c-0.552 0-1 0.444-1 1 0 0.552 0.444 1 1 1 0.552 0 1-0.444 1-1 0-0.552-0.444-1-1-1v0zM13 29c-0.552 0-1 0.444-1 1 0 0.552 0.444 1 1 1 0.552 0 1-0.444 1-1 0-0.552-0.444-1-1-1v0zM17 26c-0.552 0-1 0.444-1 1 0 0.552 0.444 1 1 1 0.552 0 1-0.444 1-1 0-0.552-0.444-1-1-1v0zM20 29c-0.552 0-1 0.444-1 1 0 0.552 0.444 1 1 1 0.552 0 1-0.444 1-1 0-0.552-0.444-1-1-1v0zM23 26c-0.552 0-1 0.444-1 1 0 0.552 0.444 1 1 1 0.552 0 1-0.444 1-1 0-0.552-0.444-1-1-1v0zM19.5 0c-0.276 0-0.5 0.216-0.5 0.495v2.009c0 0.274 0.232 0.495 0.5 0.495 0.276 0 0.5-0.216 0.5-0.495v-2.009c0-0.274-0.232-0.495-0.5-0.495v0zM26.233 2.789c-0.195-0.195-0.506-0.201-0.704-0.003l-1.421 1.421c-0.193 0.193-0.186 0.514 0.003 0.704 0.195 0.195 0.506 0.201 0.704 0.003l1.421-1.421c0.193-0.193 0.186-0.514-0.003-0.704v0zM29.022 9.522c0-0.276-0.216-0.5-0.495-0.5h-2.009c-0.274 0-0.495 0.232-0.495 0.5 0 0.276 0.216 0.5 0.495 0.5h2.009c0.274 0 0.495-0.232 0.495-0.5v0zM12.767 2.789c-0.195 0.195-0.201 0.506-0.003 0.704l1.421 1.421c0.193 0.193 0.514 0.186 0.704-0.003 0.195-0.195 0.201-0.506 0.003-0.704l-1.421-1.421c-0.193-0.193-0.514-0.186-0.704 0.003v0z"></path>
</symbol>
<symbol id="icon-cloud-sun-rain" viewBox="0 0 32 32">
<path d="M7.101 15.102v0c-0.066-0.357-0.101-0.726-0.101-1.102 0-3.314 2.686-6 6-6 2.336 0 4.361 1.335 5.352 3.285 0.812-0.795 1.923-1.285 3.148-1.285 2.485 0 4.5 2.015 4.5 4.5 0 0.209-0.014 0.415-0.042 0.616v0c1.743 0.431 3.042 2.006 3.042 3.884 0 2.205-1.792 4-4.003 4h-16.994c-2.205 0-4.003-1.791-4.003-4 0-1.895 1.325-3.488 3.101-3.898zM24.953 10.219c0.031-0.235 0.047-0.475 0.047-0.719 0-3.038-2.462-5.5-5.5-5.5-2.203 0-4.103 1.295-4.981 3.165v0c-0.489-0.108-0.997-0.165-1.519-0.165-3.866 0-7 3.134-7 7 0 0.138 0.004 0.275 0.012 0.412-1.772 0.77-3.012 2.538-3.012 4.588 0 2.761 2.232 5 4.999 5h17.001c2.761 0 4.999-2.244 4.999-5 0-2.052-1.232-3.815-3.001-4.585-0.026-1.695-0.818-3.204-2.046-4.195v0 0zM23.999 9.599v0 0c-0.75-0.383-1.599-0.599-2.499-0.599-1.059 0-2.047 0.299-2.886 0.817-0.789-1.057-1.87-1.884-3.124-2.362 0.745-1.458 2.261-2.456 4.010-2.456 2.485 0 4.5 2.015 4.5 4.5 0 0.033-0 0.066-0.001 0.099zM10.5 25c-0.276 0-0.5 0.216-0.5 0.495v2.009c0 0.274 0.232 0.495 0.5 0.495 0.276 0 0.5-0.216 0.5-0.495v-2.009c0-0.274-0.232-0.495-0.5-0.495v0zM13.5 27c-0.276 0-0.5 0.216-0.5 0.495v2.009c0 0.274 0.232 0.495 0.5 0.495 0.276 0 0.5-0.216 0.5-0.495v-2.009c0-0.274-0.232-0.495-0.5-0.495v0zM16.5 25c-0.276 0-0.5 0.216-0.5 0.495v2.009c0 0.274 0.232 0.495 0.5 0.495 0.276 0 0.5-0.216 0.5-0.495v-2.009c0-0.274-0.232-0.495-0.5-0.495v0zM19.5 27c-0.276 0-0.5 0.216-0.5 0.495v2.009c0 0.274 0.232 0.495 0.5 0.495 0.276 0 0.5-0.216 0.5-0.495v-2.009c0-0.274-0.232-0.495-0.5-0.495v0zM22.5 25c-0.276 0-0.5 0.216-0.5 0.495v2.009c0 0.274 0.232 0.495 0.5 0.495 0.276 0 0.5-0.216 0.5-0.495v-2.009c0-0.274-0.232-0.495-0.5-0.495v0zM19.5 0c-0.276 0-0.5 0.216-0.5 0.495v2.009c0 0.274 0.232 0.495 0.5 0.495 0.276 0 0.5-0.216 0.5-0.495v-2.009c0-0.274-0.232-0.495-0.5-0.495v0zM26.233 2.789c-0.195-0.195-0.506-0.201-0.704-0.003l-1.421 1.421c-0.193 0.193-0.186 0.514 0.003 0.704 0.195 0.195 0.506 0.201 0.704 0.003l1.421-1.421c0.193-0.193 0.186-0.514-0.003-0.704v0zM29.022 9.522c0-0.276-0.216-0.5-0.495-0.5h-2.009c-0.274 0-0.495 0.232-0.495 0.5 0 0.276 0.216 0.5 0.495 0.5h2.009c0.274 0 0.495-0.232 0.495-0.5v0zM12.767 2.789c-0.195 0.195-0.201 0.506-0.003 0.704l1.421 1.421c0.193 0.193 0.514 0.186 0.704-0.003 0.195-0.195 0.201-0.506 0.003-0.704l-1.421-1.421c-0.193-0.193-0.514-0.186-0.704 0.003v0z"></path>
</symbol>
<symbol id="icon-cloud-sun" viewBox="0 0 32 32">
<path d="M7.101 15.102v0c-0.066-0.357-0.101-0.726-0.101-1.102 0-3.314 2.686-6 6-6 2.336 0 4.361 1.335 5.352 3.285 0.812-0.795 1.923-1.285 3.148-1.285 2.485 0 4.5 2.015 4.5 4.5 0 0.209-0.014 0.415-0.042 0.616v0c1.743 0.431 3.042 2.006 3.042 3.884 0 2.205-1.792 4-4.003 4h-16.994c-2.205 0-4.003-1.791-4.003-4 0-1.895 1.325-3.488 3.101-3.898zM24.953 10.219c0.031-0.235 0.047-0.475 0.047-0.719 0-3.038-2.462-5.5-5.5-5.5-2.203 0-4.103 1.295-4.981 3.165v0c-0.489-0.108-0.997-0.165-1.519-0.165-3.866 0-7 3.134-7 7 0 0.138 0.004 0.275 0.012 0.412-1.772 0.77-3.012 2.538-3.012 4.588 0 2.761 2.232 5 4.999 5h17.001c2.761 0 4.999-2.244 4.999-5 0-2.052-1.232-3.815-3.001-4.585-0.026-1.695-0.818-3.204-2.046-4.195v0 0zM23.999 9.599v0 0c-0.75-0.383-1.599-0.599-2.499-0.599-1.059 0-2.047 0.299-2.886 0.817-0.789-1.057-1.87-1.884-3.124-2.362 0.745-1.458 2.261-2.456 4.010-2.456 2.485 0 4.5 2.015 4.5 4.5 0 0.033-0 0.066-0.001 0.099zM19.5 0c-0.276 0-0.5 0.216-0.5 0.495v2.009c0 0.274 0.232 0.495 0.5 0.495 0.276 0 0.5-0.216 0.5-0.495v-2.009c0-0.274-0.232-0.495-0.5-0.495v0zM26.233 2.789c-0.195-0.195-0.506-0.201-0.704-0.003l-1.421 1.421c-0.193 0.193-0.186 0.514 0.003 0.704 0.195 0.195 0.506 0.201 0.704 0.003l1.421-1.421c0.193-0.193 0.186-0.514-0.003-0.704v0zM29.022 9.522c0-0.276-0.216-0.5-0.495-0.5h-2.009c-0.274 0-0.495 0.232-0.495 0.5 0 0.276 0.216 0.5 0.495 0.5h2.009c0.274 0 0.495-0.232 0.495-0.5v0zM12.767 2.789c-0.195 0.195-0.201 0.506-0.003 0.704l1.421 1.421c0.193 0.193 0.514 0.186 0.704-0.003 0.195-0.195 0.201-0.506 0.003-0.704l-1.421-1.421c-0.193-0.193-0.514-0.186-0.704 0.003v0z"></path>
</symbol>
<symbol id="icon-clouds" viewBox="0 0 32 32">
<path d="M26.002 20v0 0c0.627 0.836 0.998 1.874 0.998 3 0 2.756-2.238 5-4.999 5h-17.001c-2.767 0-4.999-2.239-4.999-5 0-2.051 1.24-3.818 3.012-4.588-0.008-0.136-0.012-0.273-0.012-0.412 0-3.866 3.134-7 7-7 0.751 0 1.474 0.118 2.152 0.337 0.513-1.922 2.265-3.337 4.348-3.337 0.776 0 1.507 0.197 2.144 0.543 0.858-1.518 2.487-2.543 4.356-2.543 2.761 0 5 2.239 5 5 0 0.377-0.042 0.745-0.121 1.099 1.787 0.404 3.121 2.001 3.121 3.901 0 2.209-1.8 4-4.010 4h-0.988zM25.003 19h2.003c1.651 0 2.994-1.343 2.994-3 0-1.653-1.341-3-2.994-3h-0.541c0.34-0.588 0.535-1.271 0.535-2 0-2.209-1.791-4-4-4-1.916 0-3.518 1.348-3.909 3.147-0.64-0.705-1.564-1.147-2.591-1.147-1.664 0-3.056 1.161-3.412 2.716 1 0.492 1.865 1.216 2.525 2.101 0.839-0.518 1.828-0.817 2.886-0.817 3.009 0 5.454 2.416 5.499 5.415 0.359 0.156 0.695 0.353 1.004 0.585v0 0zM1 23c0 2.209 1.798 4 4.003 4h16.994c2.211 0 4.003-1.795 4.003-4 0-1.877-1.299-3.453-3.042-3.884 0.028-0.202 0.042-0.407 0.042-0.616 0-2.485-2.015-4.5-4.5-4.5-1.226 0-2.337 0.49-3.148 1.285-0.991-1.949-3.015-3.285-5.352-3.285-3.314 0-6 2.686-6 6 0 0.377 0.035 0.745 0.101 1.102-1.776 0.41-3.101 2.002-3.101 3.898v0z"></path>
</symbol>
<symbol id="icon-clouds1" viewBox="0 0 32 32">
<path d="M8.268 24h-0.761c-0.832 0-1.506 0.666-1.506 1.5 0 0.828 0.672 1.5 1.506 1.5h7.987c0.832 0 1.506-0.666 1.506-1.5 0-0.828-0.672-1.5-1.506-1.5h-0.494c0-1.105-0.895-2-2-2-0.412 0-0.794 0.124-1.112 0.338-0.273-0.779-1.015-1.338-1.888-1.338-1.105 0-2 0.895-2 2 0 0.364 0.097 0.706 0.268 1v0zM15.837 23.023c0.679 0.093 1.27 0.456 1.662 0.977h7.498c2.211 0 4.003-1.795 4.003-4 0-1.877-1.299-3.453-3.042-3.884v0c0.028-0.202 0.042-0.407 0.042-0.616 0-2.485-2.015-4.5-4.5-4.5-1.226 0-2.337 0.49-3.148 1.285-0.991-1.949-3.015-3.285-5.352-3.285-3.314 0-6 2.686-6 6 0 0.377 0.035 0.745 0.101 1.102v0c-1.776 0.41-3.101 2.002-3.101 3.898 0 1.49 0.818 2.79 2.028 3.478v0c0.285-0.207 0.615-0.355 0.973-0.428-0-0.017-0-0.034-0-0.051 0-1.657 1.343-3 3-3 0.927 0 1.756 0.42 2.306 1.081 0.223-0.053 0.455-0.081 0.694-0.081 1.315 0 2.432 0.846 2.837 2.023v0 0zM5.341 24.237c-1.407-0.885-2.341-2.451-2.341-4.237 0-2.051 1.24-3.818 3.012-4.588-0.008-0.136-0.012-0.273-0.012-0.412 0-3.866 3.134-7 7-7 1.288 0 2.495 0.348 3.532 0.955 0.36-0.457 0.876-0.784 1.468-0.905v0c-0-0.017-0-0.034-0-0.051 0-1.657 1.343-3 3-3 0.927 0 1.756 0.42 2.306 1.081 0.223-0.053 0.455-0.081 0.694-0.081 1.315 0 2.432 0.846 2.837 2.023v0c1.223 0.167 2.163 1.212 2.163 2.477 0 1.39-1.122 2.5-2.507 2.5h-0.093c0.371 0.726 0.586 1.546 0.599 2.415 1.768 0.771 3.001 2.534 3.001 4.585 0 2.756-2.238 5-4.999 5h-7.051c0.033 0.162 0.050 0.329 0.050 0.5 0 1.39-1.122 2.5-2.507 2.5h-7.987c-1.387 0-2.507-1.119-2.507-2.5 0-0.462 0.124-0.894 0.341-1.263v0 0zM25.743 12h0.751c0.832 0 1.506-0.666 1.506-1.5 0-0.828-0.672-1.5-1.506-1.5h-0.494c0-1.105-0.895-2-2-2-0.412 0-0.794 0.124-1.112 0.338-0.273-0.779-1.015-1.338-1.888-1.338-1.105 0-2 0.895-2 2 0 0.364 0.097 0.706 0.268 1v0h-0.761c-0.459 0-0.87 0.202-1.146 0.524v0c0.471 0.376 0.892 0.81 1.253 1.294 0.839-0.518 1.828-0.817 2.886-0.817 1.708 0 3.234 0.778 4.243 2v0 0z"></path>
</symbol>
<symbol id="icon-cloud-wind" viewBox="0 0 32 32">
<path d="M7.101 9.102c-1.776 0.41-3.101 2.002-3.101 3.898 0 2.209 1.798 4 4.003 4h16.994c2.211 0 4.003-1.795 4.003-4 0-1.877-1.299-3.453-3.042-3.884v0c0.028-0.202 0.042-0.407 0.042-0.616 0-2.485-2.015-4.5-4.5-4.5-1.226 0-2.337 0.49-3.148 1.285-0.991-1.949-3.015-3.285-5.352-3.285-3.314 0-6 2.686-6 6 0 0.377 0.035 0.745 0.101 1.102v0 0zM26.999 8.415c1.768 0.771 3.001 2.534 3.001 4.585 0 2.756-2.238 5-4.999 5h-17.001c-2.767 0-4.999-2.239-4.999-5 0-2.051 1.24-3.818 3.012-4.588v0c-0.008-0.136-0.012-0.273-0.012-0.412 0-3.866 3.134-7 7-7 2.298 0 4.337 1.107 5.614 2.817 0.839-0.518 1.828-0.817 2.886-0.817 3.009 0 5.454 2.416 5.499 5.415v0 0zM30 23c0-2.209-1.795-4-4-4-2.209 0-4 1.789-4 4h1c0-1.657 1.347-3 3-3 1.657 0 3 1.347 3 3 0 1.657-1.343 3-3.008 3h-22.992v1h23.002c2.208 0 3.998-1.795 3.998-4v0zM21 22c0-1.657-1.347-3-3-3-1.657 0-3 1.342-3 2.991v0.009h1c0-1.105 0.888-2 2-2 1.105 0 2 0.888 2 2 0 1.105-0.897 2-2.006 2h-11.994v1h12.001c1.657 0 2.999-1.347 2.999-3v0zM25 30c0 1.105-0.888 2-2 2v0c-1.105 0-2-0.895-2-1.994v-0.006h1c0 0.552 0.444 1 1 1v0c0.552 0 1-0.444 1-1v0c0-0.552-0.449-1-1.007-1h-13.993v-1h14.006c1.101 0 1.994 0.888 1.994 2v0 0z"></path>
</symbol>
<symbol id="icon-cloud-lightning" viewBox="0 0 32 32">
<path d="M17.067 21h2.533l-6.1 6.1 1.479-4.1h-2.579l2.3-6h3.9l-1.533 4zM19 23l3-3h-3.5l1.5-4h-6l-2.625 7h-3.372c-2.205 0-4.003-1.791-4.003-4 0-1.895 1.325-3.488 3.101-3.898v0c-0.066-0.357-0.101-0.726-0.101-1.102 0-3.314 2.686-6 6-6 2.336 0 4.361 1.335 5.352 3.285 0.812-0.795 1.923-1.285 3.148-1.285 2.485 0 4.5 2.015 4.5 4.5 0 0.209-0.014 0.415-0.042 0.616v0c1.743 0.431 3.042 2.006 3.042 3.884 0 2.205-1.792 4-4.003 4h-5.997zM18 24h7.001c2.761 0 4.999-2.244 4.999-5 0-2.052-1.232-3.815-3.001-4.585v0c-0.046-2.998-2.49-5.415-5.499-5.415-1.059 0-2.047 0.299-2.886 0.817-1.276-1.71-3.316-2.817-5.614-2.817-3.866 0-7 3.134-7 7 0 0.138 0.004 0.275 0.012 0.412v0c-1.772 0.77-3.012 2.538-3.012 4.588 0 2.761 2.232 5 4.999 5h5.546l-2.545 7 7-7z"></path>
</symbol>
<symbol id="icon-cloud-snow" viewBox="0 0 32 32">
<path d="M7.101 15.102c-1.776 0.41-3.101 2.002-3.101 3.898 0 2.209 1.798 4 4.003 4h16.994c2.211 0 4.003-1.795 4.003-4 0-1.877-1.299-3.453-3.042-3.884v0c0.028-0.202 0.042-0.407 0.042-0.616 0-2.485-2.015-4.5-4.5-4.5-1.226 0-2.337 0.49-3.148 1.285-0.991-1.949-3.015-3.285-5.352-3.285-3.314 0-6 2.686-6 6 0 0.377 0.035 0.745 0.101 1.102v0 0zM26.999 14.415c1.768 0.771 3.001 2.534 3.001 4.585 0 2.756-2.238 5-4.999 5h-17.001c-2.767 0-4.999-2.239-4.999-5 0-2.051 1.24-3.818 3.012-4.588v0c-0.008-0.136-0.012-0.273-0.012-0.412 0-3.866 3.134-7 7-7 2.298 0 4.337 1.107 5.614 2.817 0.839-0.518 1.828-0.817 2.886-0.817 3.009 0 5.454 2.416 5.499 5.415v0 0zM10 26c-0.552 0-1 0.444-1 1 0 0.552 0.444 1 1 1 0.552 0 1-0.444 1-1 0-0.552-0.444-1-1-1v0zM13 29c-0.552 0-1 0.444-1 1 0 0.552 0.444 1 1 1 0.552 0 1-0.444 1-1 0-0.552-0.444-1-1-1v0zM17 26c-0.552 0-1 0.444-1 1 0 0.552 0.444 1 1 1 0.552 0 1-0.444 1-1 0-0.552-0.444-1-1-1v0zM20 29c-0.552 0-1 0.444-1 1 0 0.552 0.444 1 1 1 0.552 0 1-0.444 1-1 0-0.552-0.444-1-1-1v0zM23 26c-0.552 0-1 0.444-1 1 0 0.552 0.444 1 1 1 0.552 0 1-0.444 1-1 0-0.552-0.444-1-1-1v0z"></path>
</symbol>
<symbol id="icon-cloud-rain" viewBox="0 0 32 32">
<path d="M7.101 15.102c-1.776 0.41-3.101 2.002-3.101 3.898 0 2.209 1.798 4 4.003 4h16.994c2.211 0 4.003-1.795 4.003-4 0-1.877-1.299-3.453-3.042-3.884v0c0.028-0.202 0.042-0.407 0.042-0.616 0-2.485-2.015-4.5-4.5-4.5-1.226 0-2.337 0.49-3.148 1.285-0.991-1.949-3.015-3.285-5.352-3.285-3.314 0-6 2.686-6 6 0 0.377 0.035 0.745 0.101 1.102v0 0zM26.999 14.415c1.768 0.771 3.001 2.534 3.001 4.585 0 2.756-2.238 5-4.999 5h-17.001c-2.767 0-4.999-2.239-4.999-5 0-2.051 1.24-3.818 3.012-4.588v0c-0.008-0.136-0.012-0.273-0.012-0.412 0-3.866 3.134-7 7-7 2.298 0 4.337 1.107 5.614 2.817 0.839-0.518 1.828-0.817 2.886-0.817 3.009 0 5.454 2.416 5.499 5.415v0 0zM10.5 25c-0.276 0-0.5 0.216-0.5 0.495v2.009c0 0.274 0.232 0.495 0.5 0.495 0.276 0 0.5-0.216 0.5-0.495v-2.009c0-0.274-0.232-0.495-0.5-0.495v0zM13.5 27c-0.276 0-0.5 0.216-0.5 0.495v2.009c0 0.274 0.232 0.495 0.5 0.495 0.276 0 0.5-0.216 0.5-0.495v-2.009c0-0.274-0.232-0.495-0.5-0.495v0zM16.5 25c-0.276 0-0.5 0.216-0.5 0.495v2.009c0 0.274 0.232 0.495 0.5 0.495 0.276 0 0.5-0.216 0.5-0.495v-2.009c0-0.274-0.232-0.495-0.5-0.495v0zM19.5 27c-0.276 0-0.5 0.216-0.5 0.495v2.009c0 0.274 0.232 0.495 0.5 0.495 0.276 0 0.5-0.216 0.5-0.495v-2.009c0-0.274-0.232-0.495-0.5-0.495v0zM22.5 25c-0.276 0-0.5 0.216-0.5 0.495v2.009c0 0.274 0.232 0.495 0.5 0.495 0.276 0 0.5-0.216 0.5-0.495v-2.009c0-0.274-0.232-0.495-0.5-0.495v0z"></path>
</symbol>
<symbol id="icon-cloud-fog" viewBox="0 0 32 32">
<path d="M3.014 20.382c-0.010-0.126-0.014-0.254-0.014-0.382 0-2.051 1.24-3.818 3.012-4.588v0c-0.008-0.136-0.012-0.273-0.012-0.412 0-0.133 0.004-0.265 0.011-0.395v0c-0.007-0.034-0.011-0.069-0.011-0.105 0-0.061 0.011-0.12 0.032-0.174 0.339-3.55 3.329-6.326 6.968-6.326 2.298 0 4.337 1.107 5.614 2.817 0.839-0.518 1.828-0.817 2.886-0.817 3.009 0 5.454 2.416 5.499 5.415v0c1.768 0.771 3.001 2.534 3.001 4.585 0 0.129-0.005 0.256-0.014 0.382 0.009 0.038 0.014 0.077 0.014 0.118 0 0.078-0.019 0.153-0.052 0.22-0.349 2.416-2.432 4.28-4.948 4.28h-17.001c-2.523 0-4.602-1.861-4.949-4.283-0.032-0.066-0.051-0.139-0.051-0.217 0-0.040 0.005-0.080 0.014-0.118v0zM4 20h25c0-0.345-0.044-0.68-0.126-1h-24.747c-0.083 0.32-0.127 0.655-0.127 1zM4.126 21c0.092 0.355 0.231 0.691 0.41 1v0h23.927c0.179-0.31 0.319-0.645 0.41-1h-24.747zM8.528 11c-0.274 0.307-0.518 0.642-0.725 1v0h10.395c-0.207-0.358-0.451-0.693-0.725-1h-8.944zM9.682 10h6.636c-0.95-0.632-2.091-1-3.318-1s-2.367 0.368-3.318 1zM7.35 12.975c-0.118 0.329-0.208 0.672-0.267 1.025v0h18.661c-0.126-0.356-0.295-0.691-0.502-1h-17.734c-0.055 0-0.108-0.009-0.158-0.025v0 0zM18.671 12h5.657c-0.773-0.625-1.757-1-2.829-1s-2.056 0.375-2.829 1zM7 15c0 0.341 0.028 0.675 0.083 1h18.89c0.018-0.164 0.027-0.331 0.027-0.5s-0.009-0.336-0.027-0.5h-18.973zM5.375 16.984c-0.332 0.29-0.617 0.633-0.839 1.016v0h23.927c-0.222-0.384-0.507-0.727-0.839-1.016-0.040 0.011-0.082 0.016-0.126 0.016h-21.996c-0.044 0-0.086-0.006-0.126-0.016v0 0zM5.357 23c0.706 0.622 1.633 1 2.645 1h16.994c1.014 0 1.941-0.378 2.646-1h-22.286z"></path>
</symbol>
<symbol id="icon-weather-sunny" viewBox="0 0 24 24">
<path d="M13 4l-1 2.934-1-2.934c-0.188-0.553 0.106-1.152 0.659-1.341 0.552-0.188 1.153 0.107 1.341 0.659 0.078 0.23 0.072 0.469 0 0.682z"></path>
<path d="M4 11l2.934 1-2.934 1c-0.553 0.188-1.152-0.106-1.341-0.659-0.188-0.552 0.107-1.153 0.659-1.341 0.23-0.078 0.469-0.072 0.682 0z"></path>
<path d="M11 20l1-2.934 1 2.934c0.188 0.553-0.106 1.152-0.659 1.341-0.552 0.188-1.152-0.106-1.341-0.659-0.078-0.23-0.072-0.469 0-0.682z"></path>
<path d="M20 12.998l-2.934-1 2.934-1c0.553-0.188 1.152 0.106 1.341 0.659 0.188 0.552-0.106 1.152-0.659 1.341-0.23 0.078-0.469 0.072-0.682 0z"></path>
<path d="M7.050 5.636l1.367 2.781-2.781-1.367c-0.524-0.257-0.74-0.891-0.483-1.414 0.258-0.523 0.891-0.739 1.414-0.482 0.218 0.107 0.383 0.28 0.483 0.482z"></path>
<path d="M5.636 16.949l2.781-1.367-1.367 2.781c-0.257 0.523-0.891 0.739-1.414 0.482s-0.739-0.891-0.482-1.414c0.107-0.218 0.28-0.382 0.482-0.482z"></path>
<path d="M16.949 18.363l-1.367-2.781 2.781 1.367c0.523 0.257 0.739 0.891 0.482 1.414s-0.891 0.739-1.414 0.482c-0.218-0.107-0.382-0.28-0.482-0.482z"></path>
<path d="M18.362 7.048l-2.782 1.368 1.368-2.782c0.257-0.523 0.891-0.739 1.414-0.482s0.739 0.891 0.481 1.415c-0.106 0.217-0.279 0.381-0.481 0.481z"></path>
<path d="M12 16.5c-2.481 0-4.5-2.019-4.5-4.5s2.019-4.5 4.5-4.5 4.5 2.019 4.5 4.5-2.019 4.5-4.5 4.5zM12 9.5c-1.379 0-2.5 1.121-2.5 2.5s1.121 2.5 2.5 2.5 2.5-1.121 2.5-2.5-1.121-2.5-2.5-2.5z"></path>
</symbol>
</defs>
</svg>
