<svg aria-hidden="true" style="position: absolute; width: 0; height: 0; overflow: hidden;" version="1.1" xmlns="http://www.w3.org/2000/svg" xmlns:xlink="http://www.w3.org/1999/xlink">
<defs>
<symbol id="icon-cloud-rain" viewBox="0 0 24 24">
<path d="M15 13v8c0 0.552 0.448 1 1 1s1-0.448 1-1v-8c0-0.552-0.448-1-1-1s-1 0.448-1 1zM7 13v8c0 0.552 0.448 1 1 1s1-0.448 1-1v-8c0-0.552-0.448-1-1-1s-1 0.448-1 1zM11 15v8c0 0.552 0.448 1 1 1s1-0.448 1-1v-8c0-0.552-0.448-1-1-1s-1 0.448-1 1zM20.401 17.496c1.517-0.665 2.623-1.883 3.181-3.312s0.572-3.074-0.092-4.591c-0.574-1.311-1.563-2.316-2.752-2.925-0.836-0.428-1.771-0.66-2.73-0.668h-0.528c-0.725-2.057-2.143-3.708-3.915-4.753-1.983-1.169-4.415-1.582-6.821-0.961s-4.334 2.161-5.503 4.144-1.582 4.415-0.961 6.821c0.509 1.97 1.634 3.623 3.099 4.783 0.433 0.343 1.062 0.27 1.405-0.163s0.27-1.062-0.163-1.405c-1.132-0.897-2.008-2.179-2.405-3.716-0.483-1.871-0.163-3.76 0.748-5.305s2.408-2.739 4.28-3.223 3.761-0.163 5.305 0.748 2.739 2.408 3.223 4.28c0.115 0.435 0.505 0.75 0.968 0.75h1.252c0.647 0.005 1.275 0.162 1.834 0.448 0.793 0.406 1.448 1.073 1.832 1.947 0.443 1.012 0.435 2.106 0.062 3.061s-1.109 1.765-2.121 2.208c-0.506 0.222-0.736 0.811-0.515 1.317s0.811 0.736 1.317 0.515z"></path>
</symbol>
<symbol id="icon-chevron-down" viewBox="0 0 24 24">
<path d="M5.293 9.707l6 6c0.391 0.391 1.024 0.391 1.414 0l6-6c0.391-0.391 0.391-1.024 0-1.414s-1.024-0.391-1.414 0l-5.293 5.293-5.293-5.293c-0.391-0.391-1.024-0.391-1.414 0s-0.391 1.024 0 1.414z"></path>
</symbol>
<symbol id="icon-sunny" viewBox="0 0 24 24">
<path d="M13 4l-1 2.934-1-2.934c-0.188-0.553 0.106-1.152 0.659-1.341 0.552-0.188 1.153 0.107 1.341 0.659 0.078 0.23 0.072 0.469 0 0.682z"></path>
<path d="M4 11l2.934 1-2.934 1c-0.553 0.188-1.152-0.106-1.341-0.659-0.188-0.552 0.107-1.153 0.659-1.341 0.23-0.078 0.469-0.072 0.682 0z"></path>
<path d="M11 20l1-2.934 1 2.934c0.188 0.553-0.106 1.152-0.659 1.341-0.552 0.188-1.152-0.106-1.341-0.659-0.078-0.23-0.072-0.469 0-0.682z"></path>
<path d="M20 12.998l-2.934-1 2.934-1c0.553-0.188 1.152 0.106 1.341 0.659 0.188 0.552-0.106 1.152-0.659 1.341-0.23 0.078-0.469 0.072-0.682 0z"></path>
<path d="M7.050 5.636l1.367 2.781-2.781-1.367c-0.524-0.257-0.74-0.891-0.483-1.414 0.258-0.523 0.891-0.739 1.414-0.482 0.218 0.107 0.383 0.28 0.483 0.482z"></path>
<path d="M5.636 16.949l2.781-1.367-1.367 2.781c-0.257 0.523-0.891 0.739-1.414 0.482s-0.739-0.891-0.482-1.414c0.107-0.218 0.28-0.382 0.482-0.482z"></path>
<path d="M16.949 18.363l-1.367-2.781 2.781 1.367c0.523 0.257 0.739 0.891 0.482 1.414s-0.891 0.739-1.414 0.482c-0.218-0.107-0.382-0.28-0.482-0.482z"></path>
<path d="M18.362 7.048l-2.782 1.368 1.368-2.782c0.257-0.523 0.891-0.739 1.414-0.482s0.739 0.891 0.481 1.415c-0.106 0.217-0.279 0.381-0.481 0.481z"></path>
<path d="M12 16.5c-2.481 0-4.5-2.019-4.5-4.5s2.019-4.5 4.5-4.5 4.5 2.019 4.5 4.5-2.019 4.5-4.5 4.5zM12 9.5c-1.379 0-2.5 1.121-2.5 2.5s1.121 2.5 2.5 2.5 2.5-1.121 2.5-2.5-1.121-2.5-2.5-2.5z"></path>
</symbol>
<symbol id="icon-arrow-up" viewBox="0 0 20 20">
<path d="M9 3.828l-6.071 6.071-1.414-1.414 8.485-8.485 8.485 8.485-1.414 1.414-6.071-6.071v16.172h-2v-16.172z"></path>
</symbol>
<symbol id="icon-cheveron-down" viewBox="0 0 20 20">
<path d="M9.293 12.95l0.707 0.707 5.657-5.657-1.414-1.414-4.243 4.242-4.243-4.242-1.414 1.414z"></path>
</symbol>
<symbol id="icon-snowflake" viewBox="0 0 26 28">
<path d="M24.469 17.453l-2.609 0.516 2.906 1.672c0.469 0.266 0.641 0.891 0.359 1.359s-0.891 0.641-1.359 0.359l-2.906-1.656 0.859 2.5c0.438 1.25-1.469 1.891-1.891 0.656l-1.594-4.688-4.234-2.438v4.891l3.25 3.719c0.875 0.984-0.641 2.312-1.5 1.313l-1.75-2v3.344c0 0.547-0.453 1-1 1s-1-0.453-1-1v-3.344l-1.75 2c-0.859 1-2.375-0.328-1.5-1.313l3.25-3.719v-4.891l-4.234 2.438-1.594 4.688c-0.422 1.234-2.328 0.594-1.891-0.656l0.859-2.5-2.906 1.656c-0.469 0.281-1.078 0.109-1.359-0.359s-0.109-1.094 0.359-1.359l2.906-1.672-2.609-0.516c-1.297-0.266-0.906-2.219 0.391-1.969l4.844 0.969 4.234-2.453-4.234-2.453-4.844 0.969c-0.063 0.016-0.141 0.016-0.203 0.016-1.188 0-1.359-1.75-0.187-1.984l2.609-0.516-2.906-1.672c-0.469-0.266-0.641-0.891-0.359-1.359 0.281-0.484 0.891-0.641 1.359-0.359l2.906 1.656-0.859-2.5c-0.438-1.25 1.469-1.891 1.891-0.656l1.594 4.688 4.234 2.438v-4.891l-3.25-3.719c-0.875-0.984 0.641-2.312 1.5-1.313l1.75 2v-3.344c0-0.547 0.453-1 1-1s1 0.453 1 1v3.344l1.75-2c0.859-1 2.375 0.328 1.5 1.313l-3.25 3.719v4.891l4.234-2.438 1.594-4.688c0.422-1.234 2.328-0.594 1.891 0.656l-0.859 2.5 2.906-1.656c0.469-0.281 1.078-0.109 1.359 0.359s0.109 1.094-0.359 1.359l-2.906 1.672 2.609 0.516c1.172 0.234 1 1.984-0.187 1.984-0.063 0-0.141 0-0.203-0.016l-4.844-0.969-4.234 2.453 4.234 2.453 4.844-0.969c1.297-0.25 1.687 1.703 0.391 1.969z"></path>
</symbol>
<symbol id="icon-rain-violent" viewBox="0 0 32 32">
<path d="M26.065 4.425c-1.499-1.535-3.57-2.425-5.733-2.425-2.16 0-4.23 0.889-5.729 2.425-3.301 0.152-5.939 2.885-5.939 6.221 0 3.436 2.794 6.232 6.23 6.232 0.365 0 0.725-0.031 1.079-0.094 1.296 0.845 2.807 1.302 4.358 1.302 1.553 0 3.066-0.457 4.361-1.302 0.357 0.062 0.716 0.094 1.081 0.094 3.434 0 6.227-2.796 6.227-6.232-0-3.336-2.637-6.070-5.935-6.221zM25.773 14.878c-0.52 0-1.023-0.094-1.5-0.279-1.094 0.953-2.484 1.487-3.941 1.487-1.453 0-2.844-0.534-3.937-1.487-0.477 0.185-0.984 0.279-1.5 0.279-2.332 0-4.23-1.898-4.23-4.232 0-2.331 1.898-4.229 4.23-4.229 0.199 0 0.398 0.016 0.595 0.043 1.131-1.537 2.909-2.46 4.842-2.46s3.715 0.923 4.844 2.46c0.195-0.027 0.395-0.043 0.598-0.043 2.332 0 4.227 1.898 4.227 4.229 0 2.333-1.895 4.232-4.227 4.232zM9 16.043h-8c-0.552 0-1 0.447-1 1s0.448 1 1 1h8c0.552 0 1-0.447 1-1s-0.448-1-1-1zM1 14.043h4c0.552 0 1-0.447 1-1s-0.448-1-1-1h-4c-0.552 0-1 0.447-1 1s0.448 1 1 1zM3 10.043h4c0.552 0 1-0.447 1-1s-0.448-1-1-1h-4c-0.552 0-1 0.447-1 1s0.448 1 1 1zM14 24c0 1.105 0.895 2 2 2s2-0.895 2-2-2-4-2-4-2 2.895-2 4zM22 28c0 1.105 0.895 2 2 2s2-0.895 2-2-2-4-2-4-2 2.895-2 4z"></path>
</symbol>
<symbol id="icon-snow-alot" viewBox="0 0 32 32">
<path d="M20.378 27.73l-1.125-0.648c0.034-0.195 0.060-0.394 0.060-0.602s-0.026-0.406-0.063-0.602l1.128-0.65c0.526-0.307 0.706-0.983 0.404-1.506-0.305-0.53-0.979-0.711-1.508-0.406l-1.137 0.656c-0.305-0.259-0.648-0.462-1.031-0.6v-1.306c0-0.611-0.496-1.105-1.105-1.105s-1.104 0.495-1.104 1.105v1.305c-0.383 0.137-0.728 0.342-1.033 0.602l-1.134-0.656c-0.53-0.305-1.206-0.125-1.51 0.405-0.305 0.526-0.121 1.203 0.406 1.508l1.122 0.648c-0.037 0.197-0.060 0.396-0.060 0.603s0.023 0.406 0.060 0.602l-1.122 0.648c-0.529 0.305-0.711 0.984-0.406 1.512s0.98 0.707 1.508 0.402l1.135-0.652c0.305 0.258 0.65 0.461 1.034 0.598v1.309c0 0.609 0.495 1.102 1.104 1.102s1.105-0.492 1.105-1.102v-1.309c0.383-0.137 0.73-0.34 1.033-0.602l1.135 0.656c0.529 0.305 1.203 0.125 1.508-0.402s0.125-1.203-0.404-1.512zM16 27.586c-0.609 0-1.105-0.496-1.105-1.105s0.496-1.103 1.105-1.103 1.104 0.494 1.104 1.103-0.495 1.105-1.104 1.105zM29.635 24.766l-0.755-0.201c-0.018-0.24-0.076-0.467-0.181-0.686l0.548-0.548c0.258-0.258 0.256-0.674 0-0.928-0.255-0.256-0.669-0.258-0.927 0l-0.549 0.547c-0.216-0.102-0.447-0.16-0.685-0.18l-0.201-0.754c-0.094-0.349-0.453-0.559-0.805-0.465-0.35 0.095-0.555 0.454-0.464 0.805l0.201 0.744c-0.099 0.068-0.193 0.143-0.281 0.229-0.086 0.089-0.159 0.182-0.227 0.279l-0.744-0.201c-0.35-0.094-0.712 0.117-0.806 0.465-0.094 0.352 0.117 0.71 0.464 0.805l0.75 0.202c0.021 0.236 0.081 0.466 0.186 0.685l-0.551 0.551c-0.255 0.256-0.254 0.671 0.003 0.926 0.255 0.255 0.669 0.258 0.924 0.003l0.552-0.552c0.216 0.107 0.448 0.167 0.688 0.185l0.198 0.751c0.096 0.35 0.453 0.559 0.805 0.465 0.349-0.094 0.56-0.453 0.466-0.807l-0.201-0.744c0.094-0.066 0.19-0.141 0.279-0.227 0.086-0.087 0.159-0.184 0.227-0.28l0.745 0.201c0.35 0.094 0.711-0.116 0.803-0.464 0.094-0.349-0.113-0.708-0.462-0.805zM27.395 25.184c-0.258 0.258-0.673 0.256-0.93 0-0.254-0.254-0.256-0.671 0-0.928 0.256-0.255 0.673-0.255 0.93 0 0.254 0.256 0.254 0.674 0 0.928zM7.434 21.406l-0.742 0.199c-0.069-0.094-0.141-0.189-0.228-0.277-0.088-0.086-0.182-0.16-0.28-0.227l0.199-0.746c0.094-0.35-0.115-0.711-0.461-0.803-0.352-0.094-0.711 0.115-0.805 0.464l-0.203 0.754c-0.238 0.020-0.466 0.078-0.684 0.181l-0.551-0.548c-0.258-0.258-0.672-0.256-0.927 0-0.256 0.256-0.256 0.672 0 0.928l0.548 0.548c-0.103 0.219-0.163 0.449-0.181 0.686l-0.753 0.201c-0.352 0.096-0.56 0.453-0.466 0.805 0.095 0.349 0.454 0.555 0.806 0.464l0.742-0.202c0.066 0.1 0.141 0.194 0.231 0.281 0.086 0.086 0.18 0.163 0.277 0.227l-0.199 0.744c-0.094 0.352 0.115 0.714 0.463 0.807 0.352 0.094 0.708-0.115 0.802-0.465l0.203-0.75c0.238-0.020 0.469-0.079 0.688-0.184l0.549 0.549c0.255 0.258 0.669 0.253 0.927-0.003 0.254-0.254 0.258-0.669 0-0.926l-0.551-0.551c0.106-0.216 0.168-0.449 0.184-0.688l0.754-0.199c0.348-0.095 0.556-0.453 0.462-0.805-0.094-0.348-0.453-0.556-0.806-0.465zM5.535 23.185c-0.256 0.256-0.672 0.256-0.93 0-0.254-0.255-0.254-0.673 0-0.927 0.258-0.255 0.673-0.255 0.93 0s0.254 0.672 0 0.927zM32 11c0-3.859-3.141-7-7-7-0.332 0-0.66 0.023-0.987 0.070-1.867-2.544-4.814-4.070-8.013-4.070s-6.145 1.526-8.013 4.070c-0.327-0.047-0.655-0.070-0.987-0.070-3.859 0-7 3.141-7 7s3.141 7 7 7c0.856 0 1.693-0.156 2.482-0.458 1.81 1.578 4.112 2.458 6.518 2.458 2.409 0 4.708-0.88 6.518-2.458 0.789 0.302 1.626 0.458 2.482 0.458 3.859 0 7-3.141 7-7zM22.129 15.083c-1.467 1.768-3.652 2.917-6.129 2.917s-4.662-1.148-6.129-2.917c-0.813 0.573-1.801 0.917-2.871 0.917-2.762 0-5-2.238-5-5s2.238-5 5-5c0.676 0 1.316 0.138 1.902 0.38 1.327-2.588 3.991-4.38 7.098-4.38s5.771 1.792 7.096 4.38c0.587-0.242 1.229-0.38 1.904-0.38 2.762 0 5 2.238 5 5s-2.238 5-5 5c-1.070 0-2.057-0.344-2.871-0.917z"></path>
</symbol>
<symbol id="icon-snow" viewBox="0 0 32 32">
<path d="M20.378 27.73l-1.125-0.648c0.034-0.195 0.060-0.394 0.060-0.602s-0.026-0.406-0.063-0.602l1.128-0.65c0.526-0.307 0.706-0.983 0.404-1.506-0.305-0.53-0.979-0.711-1.508-0.406l-1.137 0.656c-0.305-0.259-0.648-0.462-1.031-0.6v-1.306c0-0.611-0.496-1.105-1.105-1.105s-1.104 0.495-1.104 1.105v1.305c-0.383 0.137-0.728 0.342-1.033 0.602l-1.134-0.656c-0.53-0.305-1.206-0.125-1.51 0.405-0.305 0.526-0.121 1.203 0.406 1.508l1.122 0.648c-0.037 0.197-0.060 0.396-0.060 0.603s0.023 0.406 0.060 0.602l-1.122 0.648c-0.529 0.305-0.711 0.984-0.406 1.512s0.98 0.707 1.508 0.402l1.135-0.652c0.305 0.258 0.65 0.461 1.034 0.598v1.309c0 0.609 0.495 1.102 1.104 1.102s1.105-0.492 1.105-1.102v-1.309c0.383-0.137 0.73-0.34 1.033-0.602l1.135 0.656c0.529 0.305 1.203 0.125 1.508-0.402s0.125-1.203-0.404-1.512zM16 27.586c-0.609 0-1.105-0.496-1.105-1.105s0.496-1.103 1.105-1.103 1.104 0.494 1.104 1.103-0.495 1.105-1.104 1.105zM25 4c-0.332 0-0.66 0.023-0.987 0.070-1.867-2.544-4.814-4.070-8.013-4.070s-6.145 1.526-8.013 4.070c-0.327-0.047-0.655-0.070-0.987-0.070-3.859 0-7 3.141-7 7s3.141 7 7 7c0.856 0 1.693-0.156 2.482-0.458 1.81 1.578 4.112 2.458 6.518 2.458 2.409 0 4.708-0.88 6.518-2.458 0.789 0.302 1.626 0.458 2.482 0.458 3.859 0 7-3.141 7-7s-3.141-7-7-7zM25 16c-1.070 0-2.057-0.344-2.871-0.917-1.467 1.768-3.652 2.917-6.129 2.917s-4.662-1.148-6.129-2.917c-0.813 0.573-1.801 0.917-2.871 0.917-2.762 0-5-2.238-5-5s2.238-5 5-5c0.676 0 1.316 0.138 1.902 0.38 1.327-2.588 3.991-4.38 7.098-4.38s5.771 1.792 7.096 4.38c0.587-0.242 1.229-0.38 1.904-0.38 2.762 0 5 2.238 5 5s-2.238 5-5 5z"></path>
</symbol>
<symbol id="icon-rain-alot" viewBox="0 0 32 32">
<path d="M25 4c-0.332 0-0.66 0.023-0.987 0.070-1.867-2.544-4.814-4.070-8.013-4.070s-6.145 1.526-8.013 4.070c-0.327-0.047-0.655-0.070-0.987-0.070-3.859 0-7 3.141-7 7s3.141 7 7 7c0.856 0 1.693-0.156 2.482-0.458 1.81 1.578 4.112 2.458 6.518 2.458 2.409 0 4.708-0.88 6.518-2.458 0.789 0.302 1.626 0.458 2.482 0.458 3.859 0 7-3.141 7-7s-3.141-7-7-7zM25 16c-1.070 0-2.057-0.344-2.871-0.917-1.467 1.768-3.652 2.917-6.129 2.917s-4.662-1.148-6.129-2.917c-0.813 0.573-1.801 0.917-2.871 0.917-2.762 0-5-2.238-5-5s2.238-5 5-5c0.676 0 1.316 0.138 1.902 0.38 1.327-2.588 3.991-4.38 7.098-4.38s5.771 1.792 7.096 4.38c0.587-0.242 1.229-0.38 1.904-0.38 2.762 0 5 2.238 5 5s-2.238 5-5 5zM14.063 30c0 1.105 0.895 2 2 2s2-0.895 2-2-2-4-2-4-2 2.895-2 4zM22 28c0 1.105 0.895 2 2 2s2-0.895 2-2-2-4-2-4-2 2.895-2 4zM6 24c0 1.105 0.894 2 2 2s2-0.895 2-2-2-4-2-4-2 2.895-2 4z"></path>
</symbol>
<symbol id="icon-rain" viewBox="0 0 32 32">
<path d="M25 6c-0.332 0-0.66 0.023-0.987 0.070-1.867-2.544-4.814-4.070-8.013-4.070s-6.145 1.526-8.013 4.070c-0.327-0.047-0.655-0.070-0.987-0.070-3.859 0-7 3.141-7 7s3.141 7 7 7c0.856 0 1.693-0.156 2.482-0.458 1.81 1.578 4.112 2.458 6.518 2.458 2.409 0 4.708-0.88 6.518-2.458 0.789 0.302 1.626 0.458 2.482 0.458 3.859 0 7-3.141 7-7s-3.141-7-7-7zM25 18c-1.070 0-2.057-0.344-2.871-0.917-1.467 1.768-3.652 2.917-6.129 2.917s-4.662-1.148-6.129-2.917c-0.813 0.573-1.801 0.917-2.871 0.917-2.762 0-5-2.238-5-5s2.238-5 5-5c0.676 0 1.316 0.138 1.902 0.38 1.327-2.588 3.991-4.38 7.098-4.38s5.771 1.792 7.096 4.38c0.587-0.242 1.229-0.38 1.904-0.38 2.762 0 5 2.238 5 5s-2.238 5-5 5zM14 28c0 1.105 0.895 2 2 2s2-0.895 2-2-2-4-2-4-2 2.895-2 4z"></path>
</symbol>
<symbol id="icon-Fahrenheit" viewBox="0 0 32 32">
<path d="M13.033 11.079c-0.225-0.212-0.487-0.38-0.784-0.504-0.301-0.121-0.621-0.184-0.961-0.184-0.341 0-0.662 0.063-0.961 0.184-0.297 0.124-0.559 0.292-0.784 0.504-0.224 0.213-0.4 0.463-0.529 0.753-0.128 0.288-0.191 0.592-0.191 0.912 0 0.32 0.064 0.625 0.191 0.913 0.129 0.288 0.305 0.539 0.529 0.751 0.225 0.213 0.487 0.383 0.784 0.504 0.299 0.124 0.62 0.185 0.961 0.185 0.34 0 0.66-0.061 0.961-0.185 0.297-0.121 0.559-0.29 0.784-0.504 0.224-0.212 0.4-0.464 0.526-0.751 0.128-0.288 0.194-0.592 0.194-0.913 0-0.319-0.066-0.624-0.194-0.912-0.126-0.289-0.302-0.539-0.526-0.753zM12.074 13.496c-0.215 0.214-0.477 0.32-0.785 0.32s-0.57-0.107-0.785-0.32c-0.212-0.213-0.32-0.463-0.32-0.753 0-0.297 0.108-0.552 0.32-0.759 0.215-0.208 0.477-0.311 0.785-0.311s0.57 0.103 0.785 0.311c0.211 0.207 0.319 0.462 0.319 0.759 0 0.289-0.108 0.539-0.319 0.753zM23.176 12.552v-1.969h-7.599v11.025h2.191v-4.496h4.624v-1.967h-4.624v-2.592h5.407z"></path>
</symbol>
<symbol id="icon-Celsius" viewBox="0 0 32 32">
<path d="M13.073 11.023c-0.225-0.212-0.487-0.38-0.784-0.504-0.301-0.121-0.621-0.184-0.961-0.184-0.341 0-0.662 0.063-0.961 0.184-0.297 0.124-0.559 0.292-0.784 0.504-0.224 0.214-0.4 0.464-0.529 0.753-0.128 0.288-0.191 0.592-0.191 0.911 0 0.32 0.064 0.625 0.191 0.913 0.129 0.288 0.305 0.539 0.529 0.751 0.225 0.214 0.487 0.383 0.784 0.504 0.299 0.124 0.62 0.185 0.961 0.185 0.34 0 0.66-0.061 0.961-0.185 0.297-0.121 0.559-0.29 0.784-0.504 0.224-0.212 0.4-0.464 0.526-0.751 0.128-0.288 0.194-0.592 0.194-0.913 0-0.319-0.066-0.624-0.194-0.911-0.126-0.289-0.302-0.539-0.526-0.753zM12.113 13.44c-0.215 0.214-0.477 0.32-0.785 0.32s-0.57-0.107-0.785-0.32c-0.212-0.214-0.32-0.464-0.32-0.753 0-0.297 0.108-0.552 0.32-0.759 0.215-0.208 0.477-0.311 0.785-0.311s0.57 0.103 0.785 0.311c0.211 0.207 0.319 0.462 0.319 0.759 0 0.289-0.108 0.539-0.319 0.753zM20.953 19.487c-0.379 0.108-0.755 0.161-1.129 0.161-0.246 0-0.488-0.038-0.728-0.112-0.241-0.076-0.46-0.193-0.656-0.353-0.198-0.16-0.358-0.365-0.479-0.616-0.122-0.25-0.185-0.557-0.185-0.919v-3.216c0-0.362 0.062-0.672 0.185-0.928 0.121-0.255 0.279-0.464 0.471-0.624s0.409-0.275 0.656-0.344c0.245-0.069 0.49-0.104 0.736-0.104 0.374 0 0.758 0.055 1.152 0.168 0.395 0.112 0.762 0.312 1.104 0.6l1.056-1.697c-0.428-0.372-0.936-0.645-1.53-0.816-0.591-0.169-1.206-0.255-1.846-0.255-0.522 0-1.036 0.075-1.536 0.224-0.501 0.15-0.947 0.374-1.336 0.672-0.388 0.3-0.704 0.669-0.943 1.112-0.242 0.443-0.362 0.958-0.362 1.544v4.128c0 0.598 0.124 1.117 0.37 1.56 0.245 0.443 0.565 0.811 0.958 1.104 0.396 0.294 0.842 0.514 1.344 0.664 0.503 0.148 1.014 0.224 1.538 0.224 0.65 0 1.267-0.096 1.855-0.288 0.586-0.193 1.082-0.46 1.488-0.799l-1.040-1.697c-0.383 0.299-0.766 0.501-1.143 0.607z"></path>
</symbol>
<symbol id="icon-droplet" viewBox="0 0 32 32">
<path d="M16.038 0c0 0-10.038 11.921-10.038 22.023s9.962 9.977 9.962 9.977 10.038-0.125 10.038-10.039-9.962-21.961-9.962-21.961zM16 28c-3.313 0-6-2.687-6-6 0-2.121 1.114-3.963 2.777-5.026-0.477 0.637-0.777 1.53-0.777 2.526 0 0.207 0.019 0.407 0.043 0.604-0.009 0.134-0.043 0.26-0.043 0.396 0 0.257 0.042 0.503 0.076 0.75-0.047 0.243-0.076 0.493-0.076 0.75 0 2.209 1.791 4 4 4 0.257 0 0.507-0.029 0.75-0.075 0.248 0.034 0.493 0.075 0.75 0.075 0.136 0 0.262-0.033 0.395-0.044 0.197 0.025 0.398 0.044 0.605 0.044 0.996 0 1.889-0.3 2.526-0.776-1.063 1.662-2.905 2.776-5.026 2.776z"></path>
</symbol>
<symbol id="icon-eye" viewBox="0 0 32 32">
<path d="M16 6c-6.979 0-13.028 4.064-16 10 2.972 5.936 9.021 10 16 10s13.027-4.064 16-10c-2.972-5.936-9.021-10-16-10zM23.889 11.303c1.88 1.199 3.473 2.805 4.67 4.697-1.197 1.891-2.79 3.498-4.67 4.697-2.362 1.507-5.090 2.303-7.889 2.303s-5.527-0.796-7.889-2.303c-1.88-1.199-3.473-2.805-4.67-4.697 1.197-1.891 2.79-3.498 4.67-4.697 0.122-0.078 0.246-0.154 0.371-0.228-0.311 0.854-0.482 1.776-0.482 2.737 0 4.418 3.582 8 8 8s8-3.582 8-8c0-0.962-0.17-1.883-0.482-2.737 0.124 0.074 0.248 0.15 0.371 0.228v0zM16 13c0 1.657-1.343 3-3 3s-3-1.343-3-3 1.343-3 3-3 3 1.343 3 3z"></path>
</symbol>
<symbol id="icon-max" viewBox="0 0 32 32">
<path d="M27.414 12.586l-10-10c-0.781-0.781-2.047-0.781-2.828 0l-10 10c-0.781 0.781-0.781 2.047 0 2.828s2.047 0.781 2.828 0l6.586-6.586v19.172c0 1.105 0.895 2 2 2s2-0.895 2-2v-19.172l6.586 6.586c0.39 0.39 0.902 0.586 1.414 0.586s1.024-0.195 1.414-0.586c0.781-0.781 0.781-2.047 0-2.828z"></path>
</symbol>
<symbol id="icon-arrow-right" viewBox="0 0 32 32">
<path d="M19.414 27.414l10-10c0.781-0.781 0.781-2.047 0-2.828l-10-10c-0.781-0.781-2.047-0.781-2.828 0s-0.781 2.047 0 2.828l6.586 6.586h-19.172c-1.105 0-2 0.895-2 2s0.895 2 2 2h19.172l-6.586 6.586c-0.39 0.39-0.586 0.902-0.586 1.414s0.195 1.024 0.586 1.414c0.781 0.781 2.047 0.781 2.828 0z"></path>
</symbol>
<symbol id="icon-min" viewBox="0 0 32 32">
<path d="M27.414 19.414l-10 10c-0.781 0.781-2.047 0.781-2.828 0l-10-10c-0.781-0.781-0.781-2.047 0-2.828s2.047-0.781 2.828 0l6.586 6.586v-19.172c0-1.105 0.895-2 2-2s2 0.895 2 2v19.172l6.586-6.586c0.39-0.39 0.902-0.586 1.414-0.586s1.024 0.195 1.414 0.586c0.781 0.781 0.781 2.047 0 2.828z"></path>
</symbol>
<symbol id="icon-arrow-left" viewBox="0 0 32 32">
<path d="M12.586 27.414l-10-10c-0.781-0.781-0.781-2.047 0-2.828l10-10c0.781-0.781 2.047-0.781 2.828 0s0.781 2.047 0 2.828l-6.586 6.586h19.172c1.105 0 2 0.895 2 2s-0.895 2-2 2h-19.172l6.586 6.586c0.39 0.39 0.586 0.902 0.586 1.414s-0.195 1.024-0.586 1.414c-0.781 0.781-2.047 0.781-2.828 0z"></path>
</symbol>
<symbol id="icon-thermometer-full" viewBox="0 0 32 32">
<path d="M16.987 23.166c1.172 0.408 2.013 1.523 2.013 2.834 0 1.657-1.343 3-3 3s-3-1.343-3-3c0-1.311 0.841-2.426 2.013-2.834-0.009-0.054-0.013-0.109-0.013-0.165v-19.003c0-0.56 0.448-0.999 1-0.999 0.556 0 1 0.447 1 0.999v19.003c0 0.056-0.005 0.111-0.013 0.165v0zM18 22.535v-18.532c0-1.107-0.888-2.004-2-2.004-1.105 0-2 0.89-2 2.004v18.532c-1.196 0.692-2 1.984-2 3.465 0 2.209 1.791 4 4 4s4-1.791 4-4c0-1.481-0.804-2.773-2-3.465zM19.969 21.5c1.246 1.099 2.031 2.708 2.031 4.5 0 3.314-2.686 6-6 6s-6-2.686-6-6c0-1.792 0.786-3.401 2.031-4.5-0.021-0.165-0.031-0.332-0.031-0.503v-16.994c0-2.205 1.791-4.003 4-4.003 2.205 0 4 1.792 4 4.003v16.994c0 0.17-0.011 0.338-0.031 0.503v0 0z"></path>
</symbol>
<symbol id="icon-thermometer-low" viewBox="0 0 32 32">
<path d="M18 22.535v-18.532c0-1.107-0.888-2.004-2-2.004-1.105 0-2 0.89-2 2.004v18.532c-1.196 0.692-2 1.984-2 3.465 0 2.209 1.791 4 4 4s4-1.791 4-4c0-1.481-0.804-2.773-2-3.465zM19.969 21.5c1.246 1.099 2.031 2.708 2.031 4.5 0 3.314-2.686 6-6 6s-6-2.686-6-6c0-1.792 0.786-3.401 2.031-4.5-0.021-0.165-0.031-0.332-0.031-0.503v-16.994c0-2.205 1.791-4.003 4-4.003 2.205 0 4 1.792 4 4.003v16.994c0 0.17-0.011 0.338-0.031 0.503v0 0zM16 29c1.657 0 3-1.343 3-3s-1.343-3-3-3c-1.657 0-3 1.343-3 3s1.343 3 3 3v0z"></path>
</symbol>
<symbol id="icon-wind" viewBox="0 0 32 32">
<path d="M30 14c0-2.209-1.795-4-4-4-2.209 0-4 1.789-4 4h2c0-1.105 0.888-2 2-2 1.105 0 2 0.888 2 2 0 1.105-0.89 2-2.004 2h-22.996v2h23.002c2.208 0 3.998-1.795 3.998-4v0zM21 10c0-2.209-1.795-4-4-4-2.209 0-4 1.789-4 3.997v0.003h2c0-1.105 0.888-2 2-2 1.105 0 2 0.888 2 2 0 1.105-0.897 2-2.006 2h-11.994v2h12.004c2.207 0 3.996-1.795 3.996-4v0zM26 23c0 1.657-1.347 3-3 3v0c-1.657 0-3-1.342-3-2.991v-0.009h2c0 0.552 0.444 1 1 1v0c0.552 0 1-0.444 1-1v0c0-0.552-0.449-1-1.007-1h-13.993v-2h14c1.657 0 3 1.347 3 3v0 0z"></path>
</symbol>
<symbol id="icon-cloud-sun" viewBox="0 0 32 32">
<path d="M7.101 15.102v0c-0.066-0.357-0.101-0.726-0.101-1.102 0-3.314 2.686-6 6-6 2.336 0 4.361 1.335 5.352 3.285 0.812-0.795 1.923-1.285 3.148-1.285 2.485 0 4.5 2.015 4.5 4.5 0 0.209-0.014 0.415-0.042 0.616v0c1.743 0.431 3.042 2.006 3.042 3.884 0 2.205-1.792 4-4.003 4h-16.994c-2.205 0-4.003-1.791-4.003-4 0-1.895 1.325-3.488 3.101-3.898zM24.953 10.219c0.031-0.235 0.047-0.475 0.047-0.719 0-3.038-2.462-5.5-5.5-5.5-2.203 0-4.103 1.295-4.981 3.165v0c-0.489-0.108-0.997-0.165-1.519-0.165-3.866 0-7 3.134-7 7 0 0.138 0.004 0.275 0.012 0.412-1.772 0.77-3.012 2.538-3.012 4.588 0 2.761 2.232 5 4.999 5h17.001c2.761 0 4.999-2.244 4.999-5 0-2.052-1.232-3.815-3.001-4.585-0.026-1.695-0.818-3.204-2.046-4.195v0 0zM23.999 9.599v0 0c-0.75-0.383-1.599-0.599-2.499-0.599-1.059 0-2.047 0.299-2.886 0.817-0.789-1.057-1.87-1.884-3.124-2.362 0.745-1.458 2.261-2.456 4.010-2.456 2.485 0 4.5 2.015 4.5 4.5 0 0.033-0 0.066-0.001 0.099zM19.5 0c-0.276 0-0.5 0.216-0.5 0.495v2.009c0 0.274 0.232 0.495 0.5 0.495 0.276 0 0.5-0.216 0.5-0.495v-2.009c0-0.274-0.232-0.495-0.5-0.495v0zM26.233 2.789c-0.195-0.195-0.506-0.201-0.704-0.003l-1.421 1.421c-0.193 0.193-0.186 0.514 0.003 0.704 0.195 0.195 0.506 0.201 0.704 0.003l1.421-1.421c0.193-0.193 0.186-0.514-0.003-0.704v0zM29.022 9.522c0-0.276-0.216-0.5-0.495-0.5h-2.009c-0.274 0-0.495 0.232-0.495 0.5 0 0.276 0.216 0.5 0.495 0.5h2.009c0.274 0 0.495-0.232 0.495-0.5v0zM12.767 2.789c-0.195 0.195-0.201 0.506-0.003 0.704l1.421 1.421c0.193 0.193 0.514 0.186 0.704-0.003 0.195-0.195 0.201-0.506 0.003-0.704l-1.421-1.421c-0.193-0.193-0.514-0.186-0.704 0.003v0z"></path>
</symbol>
<symbol id="icon-clouds" viewBox="0 0 32 32">
<path d="M26.002 20v0 0c0.627 0.836 0.998 1.874 0.998 3 0 2.756-2.238 5-4.999 5h-17.001c-2.767 0-4.999-2.239-4.999-5 0-2.051 1.24-3.818 3.012-4.588-0.008-0.136-0.012-0.273-0.012-0.412 0-3.866 3.134-7 7-7 0.751 0 1.474 0.118 2.152 0.337 0.513-1.922 2.265-3.337 4.348-3.337 0.776 0 1.507 0.197 2.144 0.543 0.858-1.518 2.487-2.543 4.356-2.543 2.761 0 5 2.239 5 5 0 0.377-0.042 0.745-0.121 1.099 1.787 0.404 3.121 2.001 3.121 3.901 0 2.209-1.8 4-4.010 4h-0.988zM25.003 19h2.003c1.651 0 2.994-1.343 2.994-3 0-1.653-1.341-3-2.994-3h-0.541c0.34-0.588 0.535-1.271 0.535-2 0-2.209-1.791-4-4-4-1.916 0-3.518 1.348-3.909 3.147-0.64-0.705-1.564-1.147-2.591-1.147-1.664 0-3.056 1.161-3.412 2.716 1 0.492 1.865 1.216 2.525 2.101 0.839-0.518 1.828-0.817 2.886-0.817 3.009 0 5.454 2.416 5.499 5.415 0.359 0.156 0.695 0.353 1.004 0.585v0 0zM1 23c0 2.209 1.798 4 4.003 4h16.994c2.211 0 4.003-1.795 4.003-4 0-1.877-1.299-3.453-3.042-3.884 0.028-0.202 0.042-0.407 0.042-0.616 0-2.485-2.015-4.5-4.5-4.5-1.226 0-2.337 0.49-3.148 1.285-0.991-1.949-3.015-3.285-5.352-3.285-3.314 0-6 2.686-6 6 0 0.377 0.035 0.745 0.101 1.102-1.776 0.41-3.101 2.002-3.101 3.898v0z"></path>
</symbol>
<symbol id="icon-cloud-wind" viewBox="0 0 32 32">
<path d="M7.101 9.102c-1.776 0.41-3.101 2.002-3.101 3.898 0 2.209 1.798 4 4.003 4h16.994c2.211 0 4.003-1.795 4.003-4 0-1.877-1.299-3.453-3.042-3.884v0c0.028-0.202 0.042-0.407 0.042-0.616 0-2.485-2.015-4.5-4.5-4.5-1.226 0-2.337 0.49-3.148 1.285-0.991-1.949-3.015-3.285-5.352-3.285-3.314 0-6 2.686-6 6 0 0.377 0.035 0.745 0.101 1.102v0 0zM26.999 8.415c1.768 0.771 3.001 2.534 3.001 4.585 0 2.756-2.238 5-4.999 5h-17.001c-2.767 0-4.999-2.239-4.999-5 0-2.051 1.24-3.818 3.012-4.588v0c-0.008-0.136-0.012-0.273-0.012-0.412 0-3.866 3.134-7 7-7 2.298 0 4.337 1.107 5.614 2.817 0.839-0.518 1.828-0.817 2.886-0.817 3.009 0 5.454 2.416 5.499 5.415v0 0zM30 23c0-2.209-1.795-4-4-4-2.209 0-4 1.789-4 4h1c0-1.657 1.347-3 3-3 1.657 0 3 1.347 3 3 0 1.657-1.343 3-3.008 3h-22.992v1h23.002c2.208 0 3.998-1.795 3.998-4v0zM21 22c0-1.657-1.347-3-3-3-1.657 0-3 1.342-3 2.991v0.009h1c0-1.105 0.888-2 2-2 1.105 0 2 0.888 2 2 0 1.105-0.897 2-2.006 2h-11.994v1h12.001c1.657 0 2.999-1.347 2.999-3v0zM25 30c0 1.105-0.888 2-2 2v0c-1.105 0-2-0.895-2-1.994v-0.006h1c0 0.552 0.444 1 1 1v0c0.552 0 1-0.444 1-1v0c0-0.552-0.449-1-1.007-1h-13.993v-1h14.006c1.101 0 1.994 0.888 1.994 2v0 0z"></path>
</symbol>
<symbol id="icon-cloud-lightning" viewBox="0 0 32 32">
<path d="M17.067 21h2.533l-6.1 6.1 1.479-4.1h-2.579l2.3-6h3.9l-1.533 4zM19 23l3-3h-3.5l1.5-4h-6l-2.625 7h-3.372c-2.205 0-4.003-1.791-4.003-4 0-1.895 1.325-3.488 3.101-3.898v0c-0.066-0.357-0.101-0.726-0.101-1.102 0-3.314 2.686-6 6-6 2.336 0 4.361 1.335 5.352 3.285 0.812-0.795 1.923-1.285 3.148-1.285 2.485 0 4.5 2.015 4.5 4.5 0 0.209-0.014 0.415-0.042 0.616v0c1.743 0.431 3.042 2.006 3.042 3.884 0 2.205-1.792 4-4.003 4h-5.997zM18 24h7.001c2.761 0 4.999-2.244 4.999-5 0-2.052-1.232-3.815-3.001-4.585v0c-0.046-2.998-2.49-5.415-5.499-5.415-1.059 0-2.047 0.299-2.886 0.817-1.276-1.71-3.316-2.817-5.614-2.817-3.866 0-7 3.134-7 7 0 0.138 0.004 0.275 0.012 0.412v0c-1.772 0.77-3.012 2.538-3.012 4.588 0 2.761 2.232 5 4.999 5h5.546l-2.545 7 7-7z"></path>
</symbol>
<symbol id="icon-cloud-fog" viewBox="0 0 32 32">
<path d="M3.014 20.382c-0.010-0.126-0.014-0.254-0.014-0.382 0-2.051 1.24-3.818 3.012-4.588v0c-0.008-0.136-0.012-0.273-0.012-0.412 0-0.133 0.004-0.265 0.011-0.395v0c-0.007-0.034-0.011-0.069-0.011-0.105 0-0.061 0.011-0.12 0.032-0.174 0.339-3.55 3.329-6.326 6.968-6.326 2.298 0 4.337 1.107 5.614 2.817 0.839-0.518 1.828-0.817 2.886-0.817 3.009 0 5.454 2.416 5.499 5.415v0c1.768 0.771 3.001 2.534 3.001 4.585 0 0.129-0.005 0.256-0.014 0.382 0.009 0.038 0.014 0.077 0.014 0.118 0 0.078-0.019 0.153-0.052 0.22-0.349 2.416-2.432 4.28-4.948 4.28h-17.001c-2.523 0-4.602-1.861-4.949-4.283-0.032-0.066-0.051-0.139-0.051-0.217 0-0.040 0.005-0.080 0.014-0.118v0zM4 20h25c0-0.345-0.044-0.68-0.126-1h-24.747c-0.083 0.32-0.127 0.655-0.127 1zM4.126 21c0.092 0.355 0.231 0.691 0.41 1v0h23.927c0.179-0.31 0.319-0.645 0.41-1h-24.747zM8.528 11c-0.274 0.307-0.518 0.642-0.725 1v0h10.395c-0.207-0.358-0.451-0.693-0.725-1h-8.944zM9.682 10h6.636c-0.95-0.632-2.091-1-3.318-1s-2.367 0.368-3.318 1zM7.35 12.975c-0.118 0.329-0.208 0.672-0.267 1.025v0h18.661c-0.126-0.356-0.295-0.691-0.502-1h-17.734c-0.055 0-0.108-0.009-0.158-0.025v0 0zM18.671 12h5.657c-0.773-0.625-1.757-1-2.829-1s-2.056 0.375-2.829 1zM7 15c0 0.341 0.028 0.675 0.083 1h18.89c0.018-0.164 0.027-0.331 0.027-0.5s-0.009-0.336-0.027-0.5h-18.973zM5.375 16.984c-0.332 0.29-0.617 0.633-0.839 1.016v0h23.927c-0.222-0.384-0.507-0.727-0.839-1.016-0.040 0.011-0.082 0.016-0.126 0.016h-21.996c-0.044 0-0.086-0.006-0.126-0.016v0 0zM5.357 23c0.706 0.622 1.633 1 2.645 1h16.994c1.014 0 1.941-0.378 2.646-1h-22.286z"></path>
</symbol>
<symbol id="icon-moon-stars" viewBox="0 0 32 32">
<path d="M18.214 11.762l-1.214 3.238-1.214-3.238-2.286-0.762 2.286-0.762 1.214-3.238 1.214 3.238 2.286 0.762-2.286 0.762zM22.214 18.238l-1.214-3.238-1.214 3.238-2.286 0.762 2.286 0.762 1.214 3.238 1.214-3.238 2.286-0.762-2.286-0.762zM14.836 22.331v0c0.088-0.351 0.142-0.716 0.158-1.091-0.468 0.165-0.971 0.254-1.495 0.254-2.485 0-4.5-2.015-4.5-4.5 0-0.524 0.090-1.027 0.254-1.495-0.374 0.016-0.739 0.070-1.091 0.158-2.392 0.597-4.163 2.76-4.163 5.336 0 3.038 2.462 5.5 5.5 5.5 2.577 0 4.739-1.772 5.337-4.163zM5 20.995c0-1.961 1.255-3.63 3.005-4.246-0.004 0.081-0.005 0.163-0.005 0.246 0 3.038 2.462 5.5 5.5 5.5 0.082 0 0.164-0.002 0.246-0.005-0.616 1.751-2.284 3.005-4.246 3.005-2.485 0-4.5-2.015-4.5-4.5v0zM26.867 12.429l1.633 0.571-1.633 0.571-0.867 2.429-0.867-2.429-1.633-0.571 1.633-0.571 0.867-2.429 0.867 2.429z"></path>
</symbol>
<symbol id="icon-cloud-moon-snowflakes" viewBox="0 0 32 32">
<path d="M7.101 15.097v0c-0.066-0.357-0.101-0.726-0.101-1.102 0-3.314 2.686-6 6-6 2.336 0 4.361 1.335 5.352 3.285 0.812-0.795 1.923-1.285 3.148-1.285 2.485 0 4.5 2.015 4.5 4.5 0 0.209-0.014 0.415-0.042 0.616v0c1.743 0.431 3.042 2.006 3.042 3.884 0 2.205-1.792 4-4.003 4h-16.994c-2.205 0-4.003-1.791-4.003-4 0-1.895 1.325-3.488 3.101-3.898zM25.275 10.495c0.752-0.71 1.303-1.628 1.562-2.663 0.088-0.351 0.142-0.716 0.158-1.091-0.468 0.165-0.971 0.254-1.495 0.254-2.485 0-4.5-2.015-4.5-4.5 0-0.524 0.090-1.027 0.254-1.495-0.375 0.016-0.739 0.070-1.091 0.158-2.392 0.597-4.163 2.76-4.163 5.337 0 0.427 0.049 0.843 0.141 1.243-0.945-0.475-2.012-0.743-3.141-0.743-3.866 0-7 3.134-7 7 0 0.138 0.004 0.275 0.012 0.412-1.772 0.77-3.012 2.538-3.012 4.588 0 2.761 2.232 5 4.999 5h17.001c2.761 0 4.999-2.244 4.999-5 0-2.052-1.232-3.815-3.001-4.585-0.023-1.542-0.681-2.93-1.724-3.915v0 0zM24.477 9.869v0 0c-0.858-0.553-1.88-0.875-2.977-0.875-1.059 0-2.047 0.299-2.886 0.817-0.305-0.409-0.654-0.783-1.039-1.116-0.366-0.651-0.574-1.402-0.574-2.201 0-1.961 1.255-3.63 3.005-4.246-0.004 0.082-0.005 0.163-0.005 0.246 0 3.038 2.462 5.5 5.5 5.5 0.082 0 0.164-0.002 0.246-0.005-0.258 0.732-0.699 1.377-1.269 1.88zM11 26.634v-1.136c0-0.275-0.232-0.498-0.5-0.498-0.276 0-0.5 0.215-0.5 0.498v1.136l-0.984-0.568c-0.238-0.137-0.547-0.048-0.681 0.184-0.138 0.239-0.064 0.54 0.181 0.682l0.984 0.568-0.984 0.568c-0.238 0.137-0.315 0.45-0.181 0.682 0.138 0.239 0.436 0.326 0.681 0.184l0.984-0.568v1.136c0 0.275 0.232 0.498 0.5 0.498 0.276 0 0.5-0.215 0.5-0.498v-1.136l0.984 0.568c0.238 0.137 0.547 0.048 0.681-0.184 0.138-0.239 0.064-0.54-0.181-0.682l-0.984-0.568 0.984-0.568c0.238-0.137 0.315-0.45 0.181-0.682-0.138-0.239-0.436-0.326-0.681-0.184l-0.984 0.568zM23 26.634v-1.136c0-0.275-0.232-0.498-0.5-0.498-0.276 0-0.5 0.215-0.5 0.498v1.136l-0.984-0.568c-0.238-0.137-0.547-0.048-0.681 0.184-0.138 0.239-0.064 0.54 0.181 0.682l0.984 0.568-0.984 0.568c-0.238 0.137-0.315 0.45-0.181 0.682 0.138 0.239 0.436 0.326 0.681 0.184l0.984-0.568v1.136c0 0.275 0.232 0.498 0.5 0.498 0.276 0 0.5-0.215 0.5-0.498v-1.136l0.984 0.568c0.238 0.137 0.547 0.048 0.681-0.184 0.138-0.239 0.064-0.54-0.181-0.682l-0.984-0.568 0.984-0.568c0.238-0.137 0.315-0.45 0.181-0.682-0.138-0.239-0.436-0.326-0.681-0.184l-0.984 0.568zM17 27.634v-1.136c0-0.275-0.232-0.498-0.5-0.498-0.276 0-0.5 0.215-0.5 0.498v1.136l-0.984-0.568c-0.238-0.137-0.547-0.048-0.681 0.184-0.138 0.239-0.064 0.54 0.181 0.682l0.984 0.568-0.984 0.568c-0.238 0.137-0.315 0.45-0.181 0.682 0.138 0.239 0.436 0.326 0.681 0.184l0.984-0.568v1.136c0 0.275 0.232 0.498 0.5 0.498 0.276 0 0.5-0.215 0.5-0.498v-1.136l0.984 0.568c0.238 0.137 0.547 0.048 0.681-0.184 0.138-0.239 0.064-0.54-0.181-0.682l-0.984-0.568 0.984-0.568c0.238-0.137 0.315-0.45 0.181-0.682-0.138-0.239-0.436-0.326-0.681-0.184l-0.984 0.568z"></path>
</symbol>
<symbol id="icon-cloud-moon-raindrops" viewBox="0 0 32 32">
<path d="M7.101 15.102v0c-0.066-0.357-0.101-0.726-0.101-1.102 0-3.314 2.686-6 6-6 2.336 0 4.361 1.335 5.352 3.285 0.812-0.795 1.923-1.285 3.148-1.285 2.485 0 4.5 2.015 4.5 4.5 0 0.209-0.014 0.415-0.042 0.616v0c1.743 0.431 3.042 2.006 3.042 3.884 0 2.205-1.792 4-4.003 4h-16.994c-2.205 0-4.003-1.791-4.003-4 0-1.895 1.325-3.488 3.101-3.898zM25.275 10.5c0.752-0.71 1.303-1.628 1.562-2.663 0.088-0.351 0.142-0.716 0.158-1.091-0.468 0.165-0.971 0.254-1.495 0.254-2.485 0-4.5-2.015-4.5-4.5 0-0.524 0.090-1.027 0.254-1.495-0.375 0.016-0.739 0.070-1.091 0.158-2.392 0.597-4.163 2.76-4.163 5.337 0 0.427 0.049 0.843 0.141 1.243-0.945-0.475-2.012-0.743-3.141-0.743-3.866 0-7 3.134-7 7 0 0.138 0.004 0.275 0.012 0.412-1.772 0.77-3.012 2.538-3.012 4.588 0 2.761 2.232 5 4.999 5h17.001c2.761 0 4.999-2.244 4.999-5 0-2.052-1.232-3.815-3.001-4.585-0.023-1.542-0.681-2.93-1.724-3.915v0 0zM24.477 9.875v0 0c-0.858-0.553-1.88-0.875-2.977-0.875-1.059 0-2.047 0.299-2.886 0.817-0.305-0.409-0.654-0.783-1.039-1.116-0.366-0.651-0.574-1.402-0.574-2.201 0-1.961 1.255-3.63 3.005-4.246-0.004 0.082-0.005 0.163-0.005 0.246 0 3.038 2.462 5.5 5.5 5.5 0.082 0 0.164-0.002 0.246-0.005-0.258 0.732-0.699 1.377-1.269 1.88zM7 28.857v0c0 1.114 0.834 2.143 2.511 2.143s2.489-1.114 2.489-2.143c0-1.444-2.489-3.857-2.489-3.857s-2.511 2.414-2.511 3.857zM8.010 28.8c0-0.7 1.501-2.321 1.501-2.321s1.502 1.621 1.502 2.321c0 0.752-0.669 1.2-1.502 1.2s-1.501-0.325-1.501-1.2v0zM14 29.857v0c0 1.114 0.834 2.143 2.511 2.143s2.489-1.114 2.489-2.143c0-1.444-2.489-3.857-2.489-3.857s-2.511 2.414-2.511 3.857zM15.010 29.8c0-0.7 1.501-2.321 1.501-2.321s1.502 1.621 1.502 2.321c0 0.752-0.669 1.2-1.502 1.2s-1.501-0.325-1.501-1.2v0zM21 28.857v0c0 1.114 0.834 2.143 2.511 2.143s2.489-1.114 2.489-2.143c0-1.444-2.489-3.857-2.489-3.857s-2.511 2.414-2.511 3.857zM22.010 28.8c0-0.7 1.501-2.321 1.501-2.321s1.502 1.621 1.502 2.321c0 0.752-0.669 1.2-1.502 1.2s-1.501-0.325-1.501-1.2v0z"></path>
</symbol>
<symbol id="icon-cloud-moon-lightning" viewBox="0 0 32 32">
<path d="M17.067 21l1.533-4h-3.9l-2.3 6h2.579l-1.479 4.1 6.1-6.1h-2.533zM19 23h5.997c2.211 0 4.003-1.795 4.003-4 0-1.877-1.299-3.453-3.042-3.884v0c0.028-0.202 0.042-0.407 0.042-0.616 0-2.485-2.015-4.5-4.5-4.5-1.226 0-2.337 0.49-3.148 1.285-0.991-1.949-3.015-3.285-5.352-3.285-3.314 0-6 2.686-6 6 0 0.377 0.035 0.745 0.101 1.102v0c-1.776 0.41-3.101 2.002-3.101 3.898 0 2.209 1.798 4 4.003 4h3.372l2.625-7h6l-1.5 4h3.5l-3 3zM13.545 24h-5.546c-2.767 0-4.999-2.239-4.999-5 0-2.051 1.24-3.818 3.012-4.588-0.008-0.136-0.012-0.273-0.012-0.412 0-3.866 3.134-7 7-7 1.129 0 2.196 0.267 3.141 0.743-0.092-0.399-0.141-0.815-0.141-1.243 0-2.577 1.772-4.739 4.163-5.337 0.351-0.088 0.716-0.142 1.091-0.158-0.165 0.468-0.254 0.971-0.254 1.495 0 2.485 2.015 4.5 4.5 4.5 0.524 0 1.027-0.090 1.495-0.254-0.016 0.375-0.070 0.739-0.158 1.091-0.258 1.035-0.81 1.954-1.562 2.664v0c1.043 0.985 1.701 2.373 1.724 3.915 1.768 0.771 3.001 2.534 3.001 4.585 0 2.756-2.238 5-4.999 5h-7.001l-7 7 2.545-7zM24.477 9.875c0.57-0.503 1.011-1.148 1.269-1.88-0.081 0.004-0.163 0.005-0.246 0.005-3.038 0-5.5-2.462-5.5-5.5 0-0.082 0.002-0.164 0.005-0.246-1.751 0.616-3.005 2.284-3.005 4.246 0 0.8 0.209 1.55 0.574 2.201 0.386 0.333 0.734 0.707 1.039 1.116 0.839-0.518 1.828-0.817 2.886-0.817 1.097 0 2.119 0.321 2.977 0.875v0 0z"></path>
</symbol>
<symbol id="icon-cloud-moon-snow" viewBox="0 0 32 32">
<path d="M7.101 15.097v0c-0.066-0.357-0.101-0.726-0.101-1.102 0-3.314 2.686-6 6-6 2.336 0 4.361 1.335 5.352 3.285 0.812-0.795 1.923-1.285 3.148-1.285 2.485 0 4.5 2.015 4.5 4.5 0 0.209-0.014 0.415-0.042 0.616v0c1.743 0.431 3.042 2.006 3.042 3.884 0 2.205-1.792 4-4.003 4h-16.994c-2.205 0-4.003-1.791-4.003-4 0-1.895 1.325-3.488 3.101-3.898zM25.275 10.495c0.752-0.71 1.303-1.628 1.562-2.663 0.088-0.351 0.142-0.716 0.158-1.091-0.468 0.165-0.971 0.254-1.495 0.254-2.485 0-4.5-2.015-4.5-4.5 0-0.524 0.090-1.027 0.254-1.495-0.375 0.016-0.739 0.070-1.091 0.158-2.392 0.597-4.163 2.76-4.163 5.337 0 0.427 0.049 0.843 0.141 1.243-0.945-0.475-2.012-0.743-3.141-0.743-3.866 0-7 3.134-7 7 0 0.138 0.004 0.275 0.012 0.412-1.772 0.77-3.012 2.538-3.012 4.588 0 2.761 2.232 5 4.999 5h17.001c2.761 0 4.999-2.244 4.999-5 0-2.052-1.232-3.815-3.001-4.585-0.023-1.542-0.681-2.93-1.724-3.915v0 0zM24.477 9.869v0 0c-0.858-0.553-1.88-0.875-2.977-0.875-1.059 0-2.047 0.299-2.886 0.817-0.305-0.409-0.654-0.783-1.039-1.116-0.366-0.651-0.574-1.402-0.574-2.201 0-1.961 1.255-3.63 3.005-4.246-0.004 0.082-0.005 0.163-0.005 0.246 0 3.038 2.462 5.5 5.5 5.5 0.082 0 0.164-0.002 0.246-0.005-0.258 0.732-0.699 1.377-1.269 1.88zM10 26c-0.552 0-1 0.444-1 1 0 0.552 0.444 1 1 1 0.552 0 1-0.444 1-1 0-0.552-0.444-1-1-1v0zM13 29c-0.552 0-1 0.444-1 1 0 0.552 0.444 1 1 1 0.552 0 1-0.444 1-1 0-0.552-0.444-1-1-1v0zM17 26c-0.552 0-1 0.444-1 1 0 0.552 0.444 1 1 1 0.552 0 1-0.444 1-1 0-0.552-0.444-1-1-1v0zM20 29c-0.552 0-1 0.444-1 1 0 0.552 0.444 1 1 1 0.552 0 1-0.444 1-1 0-0.552-0.444-1-1-1v0zM23 26c-0.552 0-1 0.444-1 1 0 0.552 0.444 1 1 1 0.552 0 1-0.444 1-1 0-0.552-0.444-1-1-1v0z"></path>
</symbol>
<symbol id="icon-cloud-moon-rain" viewBox="0 0 32 32">
<path d="M7.101 15.097v0 0c-0.066-0.357-0.101-0.726-0.101-1.102 0-3.314 2.686-6 6-6 2.336 0 4.361 1.335 5.352 3.285 0.812-0.795 1.923-1.285 3.148-1.285 2.485 0 4.5 2.015 4.5 4.5 0 0.209-0.014 0.415-0.042 0.616v0c1.743 0.431 3.042 2.006 3.042 3.884 0 2.205-1.792 4-4.003 4h-16.994c-2.205 0-4.003-1.791-4.003-4 0-1.895 1.325-3.488 3.101-3.898zM25.275 10.495c0.752-0.71 1.303-1.628 1.562-2.663 0.088-0.351 0.142-0.716 0.158-1.091-0.468 0.165-0.971 0.254-1.495 0.254-2.485 0-4.5-2.015-4.5-4.5 0-0.524 0.090-1.027 0.254-1.495-0.375 0.016-0.739 0.070-1.091 0.158-2.392 0.597-4.163 2.76-4.163 5.337 0 0.427 0.049 0.843 0.141 1.243-0.945-0.475-2.012-0.743-3.141-0.743-3.866 0-7 3.134-7 7 0 0.138 0.004 0.275 0.012 0.412-1.772 0.77-3.012 2.538-3.012 4.588 0 2.761 2.232 5 4.999 5h17.001c2.761 0 4.999-2.244 4.999-5 0-2.052-1.232-3.815-3.001-4.585-0.023-1.542-0.681-2.93-1.724-3.915v0 0zM24.477 9.869v0 0c-0.858-0.553-1.88-0.875-2.977-0.875-1.059 0-2.047 0.299-2.886 0.817-0.305-0.409-0.654-0.783-1.039-1.116-0.366-0.651-0.574-1.402-0.574-2.201 0-1.961 1.255-3.63 3.005-4.246-0.004 0.082-0.005 0.163-0.005 0.246 0 3.038 2.462 5.5 5.5 5.5 0.082 0 0.164-0.002 0.246-0.005-0.258 0.732-0.699 1.377-1.269 1.88zM10.5 25c-0.276 0-0.5 0.216-0.5 0.495v2.009c0 0.274 0.232 0.495 0.5 0.495 0.276 0 0.5-0.216 0.5-0.495v-2.009c0-0.274-0.232-0.495-0.5-0.495v0zM13.5 27c-0.276 0-0.5 0.216-0.5 0.495v2.009c0 0.274 0.232 0.495 0.5 0.495 0.276 0 0.5-0.216 0.5-0.495v-2.009c0-0.274-0.232-0.495-0.5-0.495v0zM16.5 25c-0.276 0-0.5 0.216-0.5 0.495v2.009c0 0.274 0.232 0.495 0.5 0.495 0.276 0 0.5-0.216 0.5-0.495v-2.009c0-0.274-0.232-0.495-0.5-0.495v0zM19.5 27c-0.276 0-0.5 0.216-0.5 0.495v2.009c0 0.274 0.232 0.495 0.5 0.495 0.276 0 0.5-0.216 0.5-0.495v-2.009c0-0.274-0.232-0.495-0.5-0.495v0zM22.5 25c-0.276 0-0.5 0.216-0.5 0.495v2.009c0 0.274 0.232 0.495 0.5 0.495 0.276 0 0.5-0.216 0.5-0.495v-2.009c0-0.274-0.232-0.495-0.5-0.495v0z"></path>
</symbol>
<symbol id="icon-cloud-moon" viewBox="0 0 32 32">
<path d="M7.101 15.102v0c-0.066-0.357-0.101-0.726-0.101-1.102 0-3.314 2.686-6 6-6 2.336 0 4.361 1.335 5.352 3.285 0.812-0.795 1.923-1.285 3.148-1.285 2.485 0 4.5 2.015 4.5 4.5 0 0.209-0.014 0.415-0.042 0.616v0c1.743 0.431 3.042 2.006 3.042 3.884 0 2.205-1.792 4-4.003 4h-16.994c-2.205 0-4.003-1.791-4.003-4 0-1.895 1.325-3.488 3.101-3.898zM25.275 10.5c0.752-0.71 1.303-1.628 1.562-2.663 0.088-0.351 0.142-0.716 0.158-1.091-0.468 0.165-0.971 0.254-1.495 0.254-2.485 0-4.5-2.015-4.5-4.5 0-0.524 0.090-1.027 0.254-1.495-0.375 0.016-0.739 0.070-1.091 0.158-2.392 0.597-4.163 2.76-4.163 5.337 0 0.427 0.049 0.843 0.141 1.243-0.945-0.475-2.012-0.743-3.141-0.743-3.866 0-7 3.134-7 7 0 0.138 0.004 0.275 0.012 0.412-1.772 0.77-3.012 2.538-3.012 4.588 0 2.761 2.232 5 4.999 5h17.001c2.761 0 4.999-2.244 4.999-5 0-2.052-1.232-3.815-3.001-4.585-0.023-1.542-0.681-2.93-1.724-3.915v0 0zM24.477 9.875v0 0c-0.858-0.553-1.88-0.875-2.977-0.875-1.059 0-2.047 0.299-2.886 0.817-0.305-0.409-0.654-0.783-1.039-1.116-0.366-0.651-0.574-1.402-0.574-2.201 0-1.961 1.255-3.63 3.005-4.246-0.004 0.082-0.005 0.163-0.005 0.246 0 3.038 2.462 5.5 5.5 5.5 0.082 0 0.164-0.002 0.246-0.005-0.258 0.732-0.699 1.377-1.269 1.88z"></path>
</symbol>
<symbol id="icon-compass" viewBox="0 0 32 32">
<path d="M16 29v0c-7.18 0-13-5.82-13-13s5.82-13 13-13c7.18 0 13 5.82 13 13s-5.82 13-13 13zM16 28c6.627 0 12-5.373 12-12s-5.373-12-12-12c-6.627 0-12 5.373-12 12s5.373 12 12 12v0zM18.121 18.121c-1.768 1.768-9.192 4.95-9.192 4.95s3.182-7.425 4.95-9.192c1.768-1.768 9.192-4.95 9.192-4.95s-3.182 7.425-4.95 9.192v0zM14.62 14.6c-1.414 1.414-3.606 6.435-3.606 6.435s5.020-2.192 6.435-3.606l-2.828-2.828z"></path>
</symbol>
</defs>
</svg>
